<?xml version="1.0" encoding="utf-8"?>
<!-- Generator: Adobe Illustrator 26.2.1, SVG Export Plug-In . SVG Version: 6.00 Build 0)  -->
<svg version="1.1" id="Layer_1" xmlns="http://www.w3.org/2000/svg" xmlns:xlink="http://www.w3.org/1999/xlink" x="0px" y="0px"
	 viewBox="0 0 32 22" style="enable-background:new 0 0 32 22;" xml:space="preserve">
<style type="text/css">
	.st0{fill:#1B3A52;}
</style>
<g id="a">
</g>
<g id="b">
	<g id="c">
		<g id="d" transform="translate(76.532 39)">
			<path id="e" class="st0" d="M-44.8-32.3c0.4-0.4,0.4-1.1,0-1.5c0,0-0.1-0.1-0.1-0.1c-9.3-6.8-21.9-6.8-31.2,0
				c-0.5,0.3-0.6,1-0.2,1.5c0,0,0.1,0.1,0.1,0.1c0.4,0.4,1,0.4,1.4,0.1c8.5-6.2,20-6.2,28.5,0C-45.8-31.9-45.2-32-44.8-32.3
				L-44.8-32.3L-44.8-32.3z"/>
			<path id="f" class="st0" d="M-49.4-27.7c0.4-0.4,0.4-1,0-1.5c0-0.1-0.1-0.1-0.2-0.1c-6.7-4.4-15.3-4.4-21.9,0
				c-0.5,0.3-0.6,0.9-0.3,1.4c0,0.1,0.1,0.1,0.1,0.2c0.4,0.4,1,0.4,1.4,0.1c5.9-3.8,13.5-3.8,19.4,0C-50.3-27.3-49.8-27.4-49.4-27.7
				L-49.4-27.7z M-54-23.1c0.4-0.4,0.4-1,0-1.4c-0.1-0.1-0.2-0.1-0.2-0.2c-3.9-2-8.6-2-12.5,0c-0.5,0.3-0.7,0.9-0.4,1.3
				c0.1,0.1,0.1,0.2,0.2,0.3l0,0c0.3,0.3,0.9,0.4,1.3,0.2c3.2-1.6,7-1.6,10.3,0C-55-22.6-54.4-22.7-54-23.1L-54-23.1L-54-23.1z
				 M-58.3-18.8c0.4-0.3,0.4-0.9,0.1-1.2c0-0.1-0.1-0.1-0.2-0.2c-1.3-0.8-3-0.8-4.3,0c-0.4,0.3-0.5,0.8-0.2,1.2
				c0,0.1,0.1,0.1,0.2,0.2l1.5,1.5c0.4,0.4,1.1,0.4,1.5,0L-58.3-18.8L-58.3-18.8z"/>
		</g>
	</g>
</g>
</svg>
