<?xml version="1.0" encoding="UTF-8"?><svg xmlns="http://www.w3.org/2000/svg" viewBox="0 0 32 22"><defs><style>.e{fill:#9ebacc;}.f{fill:#1b3a52;}</style></defs><g id="a"/><g id="b"><g id="c"><g><path id="d" class="e" d="M31.69,6.66c.41-.4,.42-1.06,.02-1.47-.04-.04-.08-.07-.12-.11C22.29-1.7,9.71-1.7,.41,5.09c-.46,.34-.55,.99-.21,1.45,.03,.04,.07,.08,.11,.12,.38,.38,.98,.43,1.42,.11C10.25,.6,21.74,.6,30.27,6.77c.43,.32,1.04,.28,1.42-.1h0Z"/><path class="f" d="M27.11,11.27c.41-.4,.42-1.05,.03-1.46-.05-.05-.1-.1-.16-.14-6.68-4.35-15.27-4.35-21.95,0-.47,.32-.59,.95-.27,1.42,.04,.06,.09,.12,.14,.17,.37,.37,.95,.42,1.39,.14,5.93-3.81,13.52-3.81,19.44,0,.44,.29,1.01,.23,1.39-.14Z"/><path class="f" d="M22.47,15.93c.4-.38,.42-1.01,.04-1.41-.07-.08-.16-.14-.25-.2-3.93-2.01-8.58-2.01-12.52,0-.48,.26-.66,.86-.41,1.35,.05,.1,.12,.18,.19,.26l.03,.03c.35,.34,.87,.41,1.3,.19,3.24-1.59,7.04-1.59,10.28,0,.43,.22,.95,.14,1.3-.19l.03-.03Z"/><path class="f" d="M18.25,20.18c.37-.32,.41-.88,.09-1.25-.05-.06-.11-.12-.18-.16-1.34-.8-3-.8-4.33,0-.4,.27-.51,.82-.24,1.23,.04,.07,.1,.13,.16,.18l1.5,1.51c.41,.42,1.09,.42,1.5,0l1.5-1.51h0Z"/></g></g></g></svg>