<svg xmlns="http://www.w3.org/2000/svg" viewBox="0 0 800 540" width="800" font-family="-apple-system,BlinkMacSystemFont,'Segoe UI',Roboto,sans-serif">
  <defs>
    <marker id="ar-yellow" viewBox="0 0 10 10" refX="9" refY="5" markerWidth="9" markerHeight="9" orient="auto-start-reverse">
      <path d="M0,0 L10,5 L0,10 z" fill="#facc15"/>
    </marker>
    <marker id="ar-green" viewBox="0 0 10 10" refX="9" refY="5" markerWidth="9" markerHeight="9" orient="auto-start-reverse">
      <path d="M0,0 L10,5 L0,10 z" fill="#10b981"/>
    </marker>
    <marker id="ar-red" viewBox="0 0 10 10" refX="9" refY="5" markerWidth="9" markerHeight="9" orient="auto-start-reverse">
      <path d="M0,0 L10,5 L0,10 z" fill="#ef4444"/>
    </marker>
    <marker id="ar-sky" viewBox="0 0 10 10" refX="9" refY="5" markerWidth="9" markerHeight="9" orient="auto-start-reverse">
      <path d="M0,0 L10,5 L0,10 z" fill="#0ea5e9"/>
    </marker>
  </defs>
  <rect width="800" height="540" fill="#ffffff"/>

  <text x="400" y="36" text-anchor="middle" font-size="17" font-weight="700" fill="#0f172a">Wiring &amp; Assembly</text>
  <text x="400" y="58" text-anchor="middle" font-size="12" fill="#64748b">Sensor pinout · 4–20 mA loop · dual AC/DC supplies</text>

  <!-- Notecarrier CX center -->
  <rect x="320" y="100" width="160" height="320" rx="10" fill="#f1f5f9" stroke="#0f172a" stroke-width="2"/>
  <g transform="translate(391,115) scale(0.75)" fill="#0f172a"><path d="M15 9H9v6h6V9zm-2 4h-2v-2h2v2zm8-2V9h-2V7c0-1.1-.9-2-2-2h-2V3h-2v2h-2V3H9v2H7c-1.1 0-2 .9-2 2v2H3v2h2v2H3v2h2v2c0 1.1.9 2 2 2h2v2h2v-2h2v2h2v-2h2c1.1 0 2-.9 2-2v-2h2v-2h-2v-2h2zm-4 6H7V7h10v10z"/></g>
  <text x="400" y="152" text-anchor="middle" font-size="13" font-weight="700" fill="#0f172a">Notecarrier CX</text>
  <text x="400" y="170" text-anchor="middle" font-size="10" fill="#475569">+ Cygnet · Notecard for Skylo</text>

  <g font-size="11" fill="#0f172a">
    <text x="335" y="204">A0</text>
    <text x="335" y="284">A1</text>
    <text x="465" y="204" text-anchor="end">A2</text>
    <text x="465" y="284" text-anchor="end">D2</text>
    <text x="400" y="398" text-anchor="middle">+VBAT</text>
  </g>
  <g>
    <circle cx="320" cy="200" r="4" fill="#facc15"/>
    <circle cx="320" cy="280" r="4" fill="#10b981"/>
    <circle cx="480" cy="200" r="4" fill="#10b981"/>
    <circle cx="480" cy="280" r="4" fill="#ef4444"/>
    <circle cx="400" cy="420" r="4" fill="#0ea5e9"/>
  </g>

  <!-- Left: Level loop -->
  <rect x="40" y="170" width="180" height="60" rx="8" fill="#fefce8" stroke="#ca8a04" stroke-width="1.5"/>
  <g transform="translate(56,184) scale(0.55)" fill="#713f12"><path d="M12 2c-5.33 4.55-8 8.48-8 11.8 0 4.98 3.8 8.2 8 8.2s8-3.22 8-8.2c0-3.32-2.67-7.25-8-11.8z"/></g>
  <text x="135" y="198" text-anchor="middle" font-size="12" font-weight="700" fill="#713f12">Level transducer</text>
  <text x="135" y="218" text-anchor="middle" font-size="10" fill="#854d0e">4–20 mA · 150 Ω shunt</text>

  <!-- Left: Pump CT 1 -->
  <rect x="40" y="250" width="180" height="60" rx="8" fill="#ecfdf5" stroke="#10b981" stroke-width="1.5"/>
  <g transform="translate(56,264) scale(0.55)" fill="#064e3b"><path d="M11 21h-1l1-7H7.5c-.88 0-.33-.75-.31-.78C8.48 10.94 10.42 7.54 13.01 3h1l-1 7h3.51c.4 0 .62.19.4.66C12.97 17.55 11 21 11 21z"/></g>
  <text x="135" y="278" text-anchor="middle" font-size="12" font-weight="700" fill="#064e3b">Pump 1 CT</text>
  <text x="135" y="298" text-anchor="middle" font-size="10" fill="#065f46">SCT-013 + V/2 bias</text>

  <!-- Right: Pump CT 2 -->
  <rect x="580" y="170" width="180" height="60" rx="8" fill="#ecfdf5" stroke="#10b981" stroke-width="1.5"/>
  <g transform="translate(596,184) scale(0.55)" fill="#064e3b"><path d="M11 21h-1l1-7H7.5c-.88 0-.33-.75-.31-.78C8.48 10.94 10.42 7.54 13.01 3h1l-1 7h3.51c.4 0 .62.19.4.66C12.97 17.55 11 21 11 21z"/></g>
  <text x="675" y="198" text-anchor="middle" font-size="12" font-weight="700" fill="#064e3b">Pump 2 CT</text>
  <text x="675" y="218" text-anchor="middle" font-size="10" fill="#065f46">SCT-013 + V/2 bias</text>

  <!-- Right: Float -->
  <rect x="580" y="250" width="180" height="60" rx="8" fill="#fef2f2" stroke="#ef4444" stroke-width="1.5"/>
  <g transform="translate(596,264) scale(0.55)" fill="#7f1d1d"><path d="M1 21h22L12 2 1 21zm12-3h-2v-2h2v2zm0-4h-2v-4h2v4z"/></g>
  <text x="675" y="278" text-anchor="middle" font-size="12" font-weight="700" fill="#7f1d1d">Float switch</text>
  <text x="675" y="298" text-anchor="middle" font-size="10" fill="#991b1b">Gems N.O. · PULLUP</text>

  <!-- Translucent connection lines -->
  <line x1="220" y1="200" x2="316" y2="200" stroke="#facc15" stroke-opacity="0.7" stroke-width="2" marker-end="url(#ar-yellow)"/>
  <line x1="220" y1="280" x2="316" y2="280" stroke="#10b981" stroke-opacity="0.5" stroke-width="2" marker-end="url(#ar-green)"/>
  <line x1="580" y1="200" x2="484" y2="200" stroke="#10b981" stroke-opacity="0.5" stroke-width="2" marker-end="url(#ar-green)"/>
  <line x1="580" y1="280" x2="484" y2="280" stroke="#ef4444" stroke-opacity="0.5" stroke-width="2" marker-end="url(#ar-red)"/>

  <!-- Power supplies bottom -->
  <rect x="40" y="450" width="720" height="50" rx="8" fill="#fff7ed" stroke="#ea580c" stroke-width="1.5"/>
  <g transform="translate(50,458) scale(0.65)" fill="#7c2d12"><path d="M11 21h-1l1-7H7.5c-.88 0-.33-.75-.31-.78C8.48 10.94 10.42 7.54 13.01 3h1l-1 7h3.51c.4 0 .62.19.4.66C12.97 17.55 11 21 11 21z"/></g>
  <text x="78" y="478" font-size="12" font-weight="700" fill="#7c2d12">Power</text>
  <text x="200" y="478" font-size="11" fill="#9a3412">120 VAC →</text>
  <text x="320" y="478" font-size="11" fill="#9a3412">HDR-15-24 (loop)</text>
  <text x="500" y="478" font-size="11" fill="#9a3412">HDR-15-5 (Notecarrier)</text>

  <line x1="400" y1="450" x2="400" y2="425" stroke="#0ea5e9" stroke-opacity="0.5" stroke-width="2" marker-end="url(#ar-sky)"/>

  <!-- Safety footer -->
  <rect x="40" y="510" width="720" height="22" rx="4" fill="#fef2f2" stroke="#dc2626"/>
  <text x="400" y="525" text-anchor="middle" font-size="10" fill="#7f1d1d">⚠ Mount above-grade only — hardware not rated for hazardous wet-well atmosphere.</text>
</svg>
