<svg xmlns="http://www.w3.org/2000/svg" viewBox="0 0 800 400" width="800" font-family="-apple-system,BlinkMacSystemFont,'Segoe UI',Roboto,sans-serif">
  <defs>
    <marker id="ar-gray" viewBox="0 0 10 10" refX="9" refY="5" markerWidth="9" markerHeight="9" orient="auto-start-reverse">
      <path d="M0,0 L10,5 L0,10 z" fill="#475569"/>
    </marker>
    <marker id="ar-gray-rev" viewBox="0 0 10 10" refX="9" refY="5" markerWidth="9" markerHeight="9" orient="auto-start-reverse">
      <path d="M0,0 L10,5 L0,10 z" fill="#475569"/>
    </marker>
  </defs>
  <rect width="800" height="400" fill="#ffffff"/>

  <text x="400" y="36" text-anchor="middle" font-size="17" font-weight="700" fill="#0f172a">System Architecture</text>
  <text x="400" y="58" text-anchor="middle" font-size="12" fill="#64748b">Construction Equipment Anti-Theft Tracker with Immobilizer</text>

  <!-- Equipment signals -->
  <rect x="20" y="100" width="160" height="200" rx="8" fill="#fff7ed" stroke="#ea580c" stroke-width="1.5"/>
  <g transform="translate(90,116) scale(0.75)" fill="#7c2d12">
    <path d="M18.36 6.64A9 9 0 0 1 20 12a9 9 0 0 1-9 9 9 9 0 0 1-9-9 9 9 0 0 1 9-9c1.11 0 2.16.21 3.14.57L16.5 2.2A11 11 0 0 0 12 1 11 11 0 0 0 1 12a11 11 0 0 0 11 11 11 11 0 0 0 11-11c0-1.34-.24-2.62-.67-3.82l-3.97 3.46z"/>
    <circle cx="12" cy="12" r="3"/>
  </g>
  <text x="100" y="156" text-anchor="middle" font-size="13" font-weight="700" fill="#7c2d12">Equipment</text>
  <line x1="40" y1="170" x2="160" y2="170" stroke="#fed7aa"/>
  <g font-size="11" fill="#9a3412">
    <text x="100" y="196" text-anchor="middle">12 V ignition rail</text>
    <text x="100" y="218" text-anchor="middle">Starter solenoid ctrl</text>
    <text x="100" y="240" text-anchor="middle">Solar panel input</text>
    <text x="100" y="262" text-anchor="middle">Chassis GND</text>
  </g>

  <!-- Edge enclosure -->
  <rect x="225" y="100" width="200" height="200" rx="8" fill="#fefce8" stroke="#ca8a04" stroke-width="1.5"/>
  <g transform="translate(316,116) scale(0.75)" fill="#713f12">
    <path d="M15 9H9v6h6V9zm-2 4h-2v-2h2v2zm8-2V9h-2V7c0-1.1-.9-2-2-2h-2V3h-2v2h-2V3H9v2H7c-1.1 0-2 .9-2 2v2H3v2h2v2H3v2h2v2c0 1.1.9 2 2 2h2v2h2v-2h2v2h2v-2h2c1.1 0 2-.9 2-2v-2h2v-2h-2v-2h2zm-4 6H7V7h10v10z"/>
  </g>
  <text x="325" y="156" text-anchor="middle" font-size="13" font-weight="700" fill="#713f12">Edge enclosure</text>
  <line x1="245" y1="170" x2="405" y2="170" stroke="#fde68a"/>
  <g font-size="11" fill="#854d0e">
    <text x="325" y="196" text-anchor="middle">Notecarrier CX</text>
    <text x="325" y="218" text-anchor="middle">Cygnet STM32 host</text>
    <text x="325" y="240" text-anchor="middle">Notecard for Skylo</text>
    <text x="325" y="262" text-anchor="middle">SPDT relay + BSS138</text>
    <text x="325" y="284" text-anchor="middle">LiPo + Solar charger</text>
  </g>

  <!-- Notehub -->
  <rect x="480" y="100" width="160" height="200" rx="8" fill="#dbeafe" stroke="#2563eb" stroke-width="1.5"/>
  <g transform="translate(551,116) scale(0.75)" fill="#1e3a8a">
    <path d="M19.35 10.04C18.67 6.59 15.64 4 12 4 9.11 4 6.6 5.64 5.35 8.04 2.34 8.36 0 10.91 0 14c0 3.31 2.69 6 6 6h13c2.76 0 5-2.24 5-5 0-2.64-2.05-4.78-4.65-4.96z"/>
  </g>
  <text x="560" y="156" text-anchor="middle" font-size="13" font-weight="700" fill="#1e3a8a">Notehub</text>
  <line x1="500" y1="170" x2="620" y2="170" stroke="#bfdbfe"/>
  <g font-size="11" fill="#1e40af">
    <text x="560" y="196" text-anchor="middle">tracker.qo storage</text>
    <text x="560" y="218" text-anchor="middle">alert.qo storage</text>
    <text x="560" y="240" text-anchor="middle">immobilize.qi inbound</text>
    <text x="560" y="262" text-anchor="middle">Env vars / fleet cfg</text>
    <text x="560" y="284" text-anchor="middle">Routing rules</text>
  </g>

  <!-- Routes -->
  <rect x="695" y="100" width="90" height="200" rx="8" fill="#f3e8ff" stroke="#9333ea" stroke-width="1.5"/>
  <g transform="translate(731,116) scale(0.75)" fill="#581c87">
    <path d="M12 22c1.1 0 2-.9 2-2h-4c0 1.1.89 2 2 2zm6-6v-5c0-3.07-1.63-5.64-4.5-6.32V4c0-.83-.67-1.5-1.5-1.5s-1.5.67-1.5 1.5v.68C7.64 5.36 6 7.92 6 11v5l-2 2v1h16v-1l-2-2z"/>
  </g>
  <text x="740" y="156" text-anchor="middle" font-size="13" font-weight="700" fill="#581c87">Routes</text>
  <line x1="705" y1="170" x2="775" y2="170" stroke="#e9d5ff"/>
  <g font-size="11" fill="#6b21a8">
    <text x="740" y="196" text-anchor="middle">Security</text>
    <text x="740" y="218" text-anchor="middle">PSIM</text>
    <text x="740" y="240" text-anchor="middle">Fleet mgmt</text>
    <text x="740" y="262" text-anchor="middle">On-call</text>
  </g>

  <!-- Connection labels above arrows -->
  <text x="210" y="84" text-anchor="middle" font-size="11" font-weight="600" fill="#475569">I/O wiring</text>
  <text x="452" y="76" text-anchor="middle" font-size="11" font-weight="600" fill="#475569">LTE-M / NB-IoT</text>
  <text x="452" y="91" text-anchor="middle" font-size="11" font-weight="600" fill="#6b21a8">+ Skylo satellite</text>
  <text x="672" y="84" text-anchor="middle" font-size="11" font-weight="600" fill="#475569">routes</text>

  <!-- Outbound arrows -->
  <line x1="180" y1="200" x2="223" y2="200" stroke="#475569" stroke-opacity="0.5" stroke-width="2" marker-end="url(#ar-gray)"/>
  <line x1="425" y1="190" x2="478" y2="190" stroke="#475569" stroke-opacity="0.5" stroke-width="2" marker-end="url(#ar-gray)"/>
  <!-- Inbound arrow (commands) -->
  <line x1="478" y1="210" x2="425" y2="210" stroke="#475569" stroke-opacity="0.3" stroke-width="1.5" stroke-dasharray="4 3" marker-end="url(#ar-gray-rev)"/>
  <line x1="640" y1="200" x2="693" y2="200" stroke="#475569" stroke-opacity="0.5" stroke-width="2" marker-end="url(#ar-gray)"/>

  <text x="400" y="335" text-anchor="middle" font-size="10" fill="#64748b" font-style="italic">↑ inbound: immobilize.qi commands flow back to the device on the next inbound sync</text>

  <text x="400" y="365" text-anchor="middle" font-size="11" fill="#64748b" font-style="italic">Cellular + Skylo satellite — no job-site WiFi or IT involvement required.</text>
</svg>
