<svg xmlns="http://www.w3.org/2000/svg" viewBox="0 0 800 480" width="800" font-family="-apple-system,BlinkMacSystemFont,'Segoe UI',Roboto,sans-serif">
  <defs>
    <marker id="ar-gray" viewBox="0 0 10 10" refX="9" refY="5" markerWidth="9" markerHeight="9" orient="auto-start-reverse">
      <path d="M0,0 L10,5 L0,10 z" fill="#475569"/>
    </marker>
    <linearGradient id="propane" x1="0" x2="0" y1="0" y2="1">
      <stop offset="0%" stop-color="#fef3c7"/>
      <stop offset="100%" stop-color="#f59e0b"/>
    </linearGradient>
  </defs>
  <rect width="800" height="480" fill="#ffffff"/>

  <text x="400" y="36" text-anchor="middle" font-size="17" font-weight="700" fill="#0f172a">System Architecture</text>
  <text x="400" y="58" text-anchor="middle" font-size="12" fill="#64748b">Propane / LPG Tank Fill Telemetry — cellular + satellite on one module</text>

  <!-- Tank (rounded rectangle, propane horizontal cylinder) -->
  <rect x="30" y="180" width="220" height="100" rx="50" fill="url(#propane)" stroke="#92400e" stroke-width="2"/>
  <text x="140" y="170" text-anchor="middle" font-size="12" font-weight="700" fill="#0f172a">Propane tank</text>

  <g font-size="11" fill="#7c2d12">
    <text x="140" y="220" text-anchor="middle" font-weight="600">4–20 mA float transmitter</text>
    <text x="140" y="245" text-anchor="middle" font-weight="600">DS18B20 temperature</text>
  </g>
  <text x="140" y="298" text-anchor="middle" font-size="10" fill="#92400e" font-style="italic">at gauge port (1¼″ NPT)</text>

  <!-- Edge enclosure -->
  <rect x="310" y="140" width="180" height="200" rx="8" fill="#fef3c7" stroke="#a16207" stroke-width="1.5"/>
  <g transform="translate(391,155) scale(0.75)" fill="#713f12"><path d="M15 9H9v6h6V9zm-2 4h-2v-2h2v2zm8-2V9h-2V7c0-1.1-.9-2-2-2h-2V3h-2v2h-2V3H9v2H7c-1.1 0-2 .9-2 2v2H3v2h2v2H3v2h2v2c0 1.1.9 2 2 2h2v2h2v-2h2v2h2v-2h2c1.1 0 2-.9 2-2v-2h2v-2h-2v-2h2zm-4 6H7V7h10v10z"/></g>
  <text x="400" y="192" text-anchor="middle" font-size="12" font-weight="700" fill="#713f12">Edge enclosure</text>
  <text x="400" y="210" text-anchor="middle" font-size="11" fill="#854d0e">outside hazardous area</text>
  <line x1="330" y1="225" x2="470" y2="225" stroke="#fde68a"/>
  <g font-size="11" fill="#854d0e">
    <text x="400" y="252" text-anchor="middle">Notecarrier CX</text>
    <text x="400" y="274" text-anchor="middle">Cygnet host</text>
  </g>
  <text x="400" y="315" text-anchor="middle" font-size="10" fill="#a16207" font-style="italic">solar + SLA powered</text>

  <!-- Connectivity -->
  <rect x="540" y="100" width="240" height="120" rx="8" fill="#dbeafe" stroke="#2563eb" stroke-width="1.5"/>
  <g transform="translate(651,115) scale(0.75)" fill="#1e3a8a"><path d="M1 9l2 2c4.97-4.97 13.03-4.97 18 0l2-2C16.93 2.93 7.08 2.93 1 9zm8 8l3 3 3-3c-1.65-1.66-4.34-1.66-6 0zm-4-4l2 2c2.76-2.76 7.24-2.76 10 0l2-2C15.14 9.14 8.87 9.14 5 13z"/></g>
  <text x="660" y="152" text-anchor="middle" font-size="12" font-weight="700" fill="#1e3a8a">Connectivity</text>
  <line x1="560" y1="166" x2="760" y2="166" stroke="#bfdbfe"/>
  <text x="660" y="190" text-anchor="middle" font-size="11" font-weight="700" fill="#1e40af">Notecard for Skylo</text>
  <text x="660" y="210" text-anchor="middle" font-size="11" fill="#7e22ce">cellular · WiFi · satellite</text>

  <!-- Notehub -->
  <rect x="540" y="240" width="240" height="100" rx="8" fill="#dbeafe" stroke="#2563eb" stroke-width="1.5"/>
  <g transform="translate(651,255) scale(0.75)" fill="#1e3a8a"><path d="M19.35 10.04C18.67 6.59 15.64 4 12 4 9.11 4 6.6 5.64 5.35 8.04 2.34 8.36 0 10.91 0 14c0 3.31 2.69 6 6 6h13c2.76 0 5-2.24 5-5 0-2.64-2.05-4.78-4.65-4.96z"/></g>
  <text x="660" y="292" text-anchor="middle" font-size="13" font-weight="700" fill="#1e3a8a">Notehub</text>
  <text x="660" y="312" text-anchor="middle" font-size="11" fill="#1e40af">shared project</text>
  <text x="660" y="328" text-anchor="middle" font-size="11" fill="#1e40af">env-var thresholds</text>

  <!-- Routes -->
  <rect x="540" y="360" width="240" height="60" rx="8" fill="#fef3c7" stroke="#f59e0b" stroke-width="1.5"/>
  <g transform="translate(651,367) scale(0.6)" fill="#78350f"><path d="M12 22c1.1 0 2-.9 2-2h-4c0 1.1.89 2 2 2zm6-6v-5c0-3.07-1.63-5.64-4.5-6.32V4c0-.83-.67-1.5-1.5-1.5s-1.5.67-1.5 1.5v.68C7.64 5.36 6 7.92 6 11v5l-2 2v1h16v-1l-2-2z"/></g>
  <text x="660" y="397" text-anchor="middle" font-size="11" font-weight="700" fill="#78350f">Dispatch &amp; analytics</text>
  <text x="660" y="413" text-anchor="middle" font-size="10" fill="#92400e">route opt · ERP · TS DB</text>

  <!-- Arrows -->
  <line x1="250" y1="230" x2="308" y2="230" stroke="#475569" stroke-opacity="0.5" stroke-width="2" marker-end="url(#ar-gray)"/>
  <line x1="490" y1="180" x2="538" y2="160" stroke="#475569" stroke-opacity="0.5" stroke-width="2" marker-end="url(#ar-gray)"/>
  <line x1="660" y1="220" x2="660" y2="238" stroke="#475569" stroke-opacity="0.5" stroke-width="2" marker-end="url(#ar-gray)"/>
  <line x1="660" y1="340" x2="660" y2="358" stroke="#475569" stroke-opacity="0.5" stroke-width="2" marker-end="url(#ar-gray)"/>

  <text x="400" y="455" text-anchor="middle" font-size="11" fill="#64748b" font-style="italic">Replace fixed-schedule routes with demand-driven dispatch — days-until-empty for every tank.</text>
</svg>
