<svg xmlns="http://www.w3.org/2000/svg" viewBox="0 0 800 580" width="800" font-family="-apple-system,BlinkMacSystemFont,'Segoe UI',Roboto,sans-serif">
  <defs>
    <marker id="ar-amber" viewBox="0 0 10 10" refX="9" refY="5" markerWidth="9" markerHeight="9" orient="auto-start-reverse">
      <path d="M0,0 L10,5 L0,10 z" fill="#f59e0b"/>
    </marker>
    <marker id="ar-orange" viewBox="0 0 10 10" refX="9" refY="5" markerWidth="9" markerHeight="9" orient="auto-start-reverse">
      <path d="M0,0 L10,5 L0,10 z" fill="#ea580c"/>
    </marker>
    <marker id="ar-sky" viewBox="0 0 10 10" refX="9" refY="5" markerWidth="9" markerHeight="9" orient="auto-start-reverse">
      <path d="M0,0 L10,5 L0,10 z" fill="#0ea5e9"/>
    </marker>
    <marker id="ar-yellow" viewBox="0 0 10 10" refX="9" refY="5" markerWidth="9" markerHeight="9" orient="auto-start-reverse">
      <path d="M0,0 L10,5 L0,10 z" fill="#eab308"/>
    </marker>
    <marker id="ar-brown" viewBox="0 0 10 10" refX="9" refY="5" markerWidth="9" markerHeight="9" orient="auto-start-reverse">
      <path d="M0,0 L10,5 L0,10 z" fill="#a16207"/>
    </marker>
  </defs>
  <rect width="800" height="580" fill="#ffffff"/>

  <text x="400" y="36" text-anchor="middle" font-size="17" font-weight="700" fill="#0f172a">Wiring &amp; Assembly</text>
  <text x="400" y="58" text-anchor="middle" font-size="12" fill="#64748b">4–20 mA loop with 120 Ω shunt · DS18B20 1-Wire · solar/SLA dual-rail power</text>

  <!-- Notecarrier center -->
  <rect x="320" y="100" width="160" height="280" rx="10" fill="#f1f5f9" stroke="#0f172a" stroke-width="2"/>
  <g transform="translate(391,115) scale(0.75)" fill="#0f172a"><path d="M15 9H9v6h6V9zm-2 4h-2v-2h2v2zm8-2V9h-2V7c0-1.1-.9-2-2-2h-2V3h-2v2h-2V3H9v2H7c-1.1 0-2 .9-2 2v2H3v2h2v2H3v2h2v2c0 1.1.9 2 2 2h2v2h2v-2h2v2h2v-2h2c1.1 0 2-.9 2-2v-2h2v-2h-2v-2h2zm-4 6H7V7h10v10z"/></g>
  <text x="400" y="152" text-anchor="middle" font-size="13" font-weight="700" fill="#0f172a">Notecarrier CX</text>
  <text x="400" y="170" text-anchor="middle" font-size="10" fill="#475569">+ Cygnet · Notecard for Skylo</text>

  <g font-size="11" fill="#0f172a">
    <text x="335" y="204">A0</text>
    <text x="465" y="204" text-anchor="end">D2</text>
    <text x="400" y="358" text-anchor="middle">+VBAT</text>
  </g>
  <g>
    <circle cx="320" cy="200" r="4" fill="#f59e0b"/>
    <circle cx="480" cy="200" r="4" fill="#eab308"/>
    <circle cx="400" cy="380" r="4" fill="#0ea5e9"/>
  </g>

  <!-- Left: 4-20 mA loop sensor -->
  <rect x="40" y="170" width="180" height="60" rx="8" fill="#fff7ed" stroke="#f59e0b" stroke-width="1.5"/>
  <g transform="translate(56,184) scale(0.55)" fill="#7c2d12"><path d="M20.38 8.57l-1.23 1.85a8 8 0 0 1-.22 7.58H5.07A8 8 0 0 1 15.58 6.85l1.85-1.23A10 10 0 0 0 3.35 19a2 2 0 0 0 1.72 1h13.85a2 2 0 0 0 1.74-1 10 10 0 0 0-.27-10.44zm-9.79 6.84a2 2 0 0 0 2.83 0l5.66-8.49-8.49 5.66a2 2 0 0 0 0 2.83z"/></g>
  <text x="135" y="198" text-anchor="middle" font-size="12" font-weight="700" fill="#7c2d12">4–20 mA float xmtr</text>
  <text x="135" y="218" text-anchor="middle" font-size="10" fill="#9a3412">+ 120 Ω shunt → A0</text>

  <!-- Right: DS18B20 -->
  <rect x="580" y="170" width="180" height="60" rx="8" fill="#fefce8" stroke="#eab308" stroke-width="1.5"/>
  <g transform="translate(596,184) scale(0.55)" fill="#713f12"><path d="M15 13V5c0-1.66-1.34-3-3-3S9 3.34 9 5v8c-1.21.91-2 2.37-2 4 0 2.76 2.24 5 5 5s5-2.24 5-5c0-1.63-.79-3.09-2-4z"/></g>
  <text x="675" y="198" text-anchor="middle" font-size="12" font-weight="700" fill="#713f12">Tank-shell temp</text>
  <text x="675" y="218" text-anchor="middle" font-size="10" fill="#854d0e">DS18B20 + 4.7 kΩ pull-up</text>

  <!-- 24V loop supply box (lower-left) -->
  <rect x="40" y="270" width="180" height="60" rx="8" fill="#fff7ed" stroke="#ea580c" stroke-width="1.5" stroke-dasharray="4,3"/>
  <g transform="translate(56,284) scale(0.55)" fill="#7c2d12"><path d="M11 21h-1l1-7H7.5c-.88 0-.33-.75-.31-.78C8.48 10.94 10.42 7.54 13.01 3h1l-1 7h3.51c.4 0 .62.19.4.66C12.97 17.55 11 21 11 21z"/></g>
  <text x="135" y="298" text-anchor="middle" font-size="12" font-weight="700" fill="#7c2d12">24 V boost</text>
  <text x="135" y="318" text-anchor="middle" font-size="10" fill="#9a3412">loop supply for xmtr</text>

  <!-- Connection arrows -->
  <line x1="220" y1="200" x2="316" y2="200" stroke="#f59e0b" stroke-opacity="0.5" stroke-width="2" marker-end="url(#ar-amber)"/>
  <line x1="580" y1="200" x2="484" y2="200" stroke="#eab308" stroke-opacity="0.5" stroke-width="2" marker-end="url(#ar-yellow)"/>
  <line x1="135" y1="270" x2="135" y2="232" stroke="#ea580c" stroke-opacity="0.5" stroke-width="2" marker-end="url(#ar-orange)"/>

  <!-- Power chain bottom (solar + SLA + dual rails) -->
  <rect x="40" y="410" width="720" height="130" rx="8" fill="#fefce8" stroke="#ca8a04" stroke-width="1.5"/>
  <g transform="translate(50,418) scale(0.65)" fill="#713f12"><path d="M11 21h-1l1-7H7.5c-.88 0-.33-.75-.31-.78C8.48 10.94 10.42 7.54 13.01 3h1l-1 7h3.51c.4 0 .62.19.4.66C12.97 17.55 11 21 11 21z"/></g>
  <text x="78" y="434" font-size="12" font-weight="700" fill="#713f12">Power chain (solar + SLA, two rails)</text>

  <rect x="60" y="450" width="100" height="40" rx="4" fill="#ffffff" stroke="#a16207"/>
  <text x="110" y="475" text-anchor="middle" font-size="11" fill="#713f12">Solar 10–20 W</text>

  <rect x="180" y="450" width="120" height="40" rx="4" fill="#ffffff" stroke="#a16207"/>
  <text x="240" y="468" text-anchor="middle" font-size="11" fill="#713f12">MPPT 75/10</text>
  <text x="240" y="483" text-anchor="middle" font-size="9" fill="#854d0e">LVD on LOAD</text>

  <rect x="320" y="450" width="120" height="40" rx="4" fill="#ffffff" stroke="#a16207"/>
  <text x="380" y="468" text-anchor="middle" font-size="11" fill="#713f12">SLA 12 V</text>
  <text x="380" y="483" text-anchor="middle" font-size="9" fill="#854d0e">7–10 Ah · fused</text>

  <rect x="460" y="430" width="140" height="40" rx="4" fill="#ffffff" stroke="#a16207"/>
  <text x="530" y="455" text-anchor="middle" font-size="11" fill="#713f12">5 V step-down</text>

  <rect x="460" y="490" width="140" height="40" rx="4" fill="#ffffff" stroke="#a16207"/>
  <text x="530" y="515" text-anchor="middle" font-size="11" fill="#713f12">24 V boost</text>

  <rect x="620" y="430" width="140" height="40" rx="4" fill="#ffffff" stroke="#a16207"/>
  <text x="690" y="455" text-anchor="middle" font-size="11" fill="#713f12">Notecarrier +VBAT</text>

  <rect x="620" y="490" width="140" height="40" rx="4" fill="#ffffff" stroke="#a16207"/>
  <text x="690" y="515" text-anchor="middle" font-size="11" fill="#713f12">Loop supply (xmtr)</text>

  <line x1="160" y1="470" x2="178" y2="470" stroke="#a16207" stroke-opacity="0.5" stroke-width="2" marker-end="url(#ar-brown)"/>
  <line x1="300" y1="470" x2="318" y2="470" stroke="#a16207" stroke-opacity="0.5" stroke-width="2" marker-end="url(#ar-brown)"/>
  <line x1="440" y1="465" x2="458" y2="450" stroke="#a16207" stroke-opacity="0.5" stroke-width="2" marker-end="url(#ar-brown)"/>
  <line x1="440" y1="475" x2="458" y2="510" stroke="#a16207" stroke-opacity="0.5" stroke-width="2" marker-end="url(#ar-brown)"/>
  <line x1="600" y1="450" x2="618" y2="450" stroke="#a16207" stroke-opacity="0.5" stroke-width="2" marker-end="url(#ar-brown)"/>
  <line x1="600" y1="510" x2="618" y2="510" stroke="#a16207" stroke-opacity="0.5" stroke-width="2" marker-end="url(#ar-brown)"/>

  <line x1="690" y1="430" x2="400" y2="385" stroke="#0ea5e9" stroke-opacity="0.5" stroke-width="2" marker-end="url(#ar-sky)"/>

  <!-- Safety footer -->
  <rect x="40" y="552" width="720" height="22" rx="4" fill="#fef2f2" stroke="#dc2626"/>
  <text x="400" y="567" text-anchor="middle" font-size="10" fill="#7f1d1d">⚠ Mount enclosure outside the AHJ-defined classified area; LP gas work by qualified technician only.</text>
</svg>
