<svg xmlns="http://www.w3.org/2000/svg" viewBox="0 0 800 650" width="800" font-family="-apple-system,BlinkMacSystemFont,'Segoe UI',Roboto,sans-serif">
  <defs>
    <marker id="ar-teal" viewBox="0 0 10 10" refX="9" refY="5" markerWidth="9" markerHeight="9" orient="auto-start-reverse">
      <path d="M0,0 L10,5 L0,10 z" fill="#0d9488"/>
    </marker>
    <marker id="ar-orange" viewBox="0 0 10 10" refX="9" refY="5" markerWidth="9" markerHeight="9" orient="auto-start-reverse">
      <path d="M0,0 L10,5 L0,10 z" fill="#ea580c"/>
    </marker>
    <marker id="ar-amber" viewBox="0 0 10 10" refX="9" refY="5" markerWidth="9" markerHeight="9" orient="auto-start-reverse">
      <path d="M0,0 L10,5 L0,10 z" fill="#d97706"/>
    </marker>
    <marker id="ar-brown" viewBox="0 0 10 10" refX="9" refY="5" markerWidth="9" markerHeight="9" orient="auto-start-reverse">
      <path d="M0,0 L10,5 L0,10 z" fill="#a16207"/>
    </marker>
  </defs>
  <rect width="800" height="650" fill="#ffffff"/>

  <text x="400" y="36" text-anchor="middle" font-size="17" font-weight="700" fill="#0f172a">Wiring &amp; Assembly</text>
  <text x="400" y="58" text-anchor="middle" font-size="12" fill="#64748b">Sensor and power connections on the Notecarrier CX</text>

  <!-- Notecarrier CX centre -->
  <rect x="305" y="100" width="190" height="300" rx="10" fill="#f1f5f9" stroke="#0f172a" stroke-width="2"/>
  <g transform="translate(391,115) scale(0.75)" fill="#0f172a"><path d="M15 9H9v6h6V9zm-2 4h-2v-2h2v2zm8-2V9h-2V7c0-1.1-.9-2-2-2h-2V3h-2v2h-2V3H9v2H7c-1.1 0-2 .9-2 2v2H3v2h2v2H3v2h2v2c0 1.1.9 2 2 2h2v2h2v-2h2v2h2v-2h2c1.1 0 2-.9 2-2v-2h2v-2h-2v-2h2zm-4 6H7V7h10v10z"/></g>
  <text x="400" y="152" text-anchor="middle" font-size="13" font-weight="700" fill="#0f172a">Notecarrier CX</text>
  <text x="400" y="170" text-anchor="middle" font-size="10" fill="#475569">Cygnet · MBGLW</text>

  <!-- Pin labels on Notecarrier -->
  <g font-size="11" fill="#0f172a">
    <text x="320" y="210">Qwiic</text>
    <text x="320" y="270">A0</text>
    <text x="320" y="310">V+</text>
    <text x="320" y="350">GND</text>
    <text x="400" y="388" text-anchor="middle">LiPo JST</text>
  </g>
  <!-- Pin dots left side -->
  <circle cx="305" cy="206" r="4" fill="#0d9488"/>
  <circle cx="305" cy="266" r="4" fill="#ea580c"/>
  <circle cx="305" cy="306" r="4" fill="#dc2626"/>
  <circle cx="305" cy="346" r="4" fill="#374151"/>
  <!-- Pin dot bottom -->
  <circle cx="400" cy="400" r="4" fill="#d97706"/>

  <!-- Left: PMSA003I -->
  <rect x="40" y="170" width="180" height="70" rx="8" fill="#f0fdf4" stroke="#0d9488" stroke-width="1.5"/>
  <g transform="translate(56,184) scale(0.55)" fill="#064e3b"><path d="M20.38 8.57l-1.23 1.85a8 8 0 0 1-.22 7.58H5.07A8 8 0 0 1 15.58 6.85l1.85-1.23A10 10 0 0 0 3.35 19a2 2 0 0 0 1.72 1h13.85a2 2 0 0 0 1.74-1 10 10 0 0 0-.27-10.44zm-9.79 6.84a2 2 0 0 0 2.83 0l5.66-8.49-8.49 5.66a2 2 0 0 0 0 2.83z"/></g>
  <text x="148" y="200" text-anchor="middle" font-size="12" font-weight="700" fill="#064e3b">PMSA003I</text>
  <text x="148" y="218" text-anchor="middle" font-size="10" fill="#065f46">PM2.5 / PM10 · Qwiic</text>

  <!-- Left: SEN0232 -->
  <rect x="40" y="270" width="180" height="70" rx="8" fill="#fff7ed" stroke="#ea580c" stroke-width="1.5"/>
  <g transform="translate(56,284) scale(0.55)" fill="#7c2d12"><path d="M12 3c-4.97 0-9 4.03-9 9v7c0 1.1.9 2 2 2h4v-8H5v-1c0-3.87 3.13-7 7-7s7 3.13 7 7v1h-4v8h4c1.1 0 2-.9 2-2v-7c0-4.97-4.03-9-9-9z"/></g>
  <text x="148" y="300" text-anchor="middle" font-size="12" font-weight="700" fill="#7c2d12">SEN0232</text>
  <text x="148" y="318" text-anchor="middle" font-size="10" fill="#9a3412">dB(A) sound  (A0 + V+)</text>

  <!-- Arrows left sensors → Notecarrier -->
  <line x1="220" y1="205" x2="302" y2="206" stroke="#0d9488" stroke-opacity="0.6" stroke-width="2" marker-end="url(#ar-teal)"/>
  <line x1="220" y1="305" x2="302" y2="296" stroke="#ea580c" stroke-opacity="0.6" stroke-width="2" marker-end="url(#ar-orange)"/>

  <!-- Right: antenna callout box -->
  <rect x="580" y="170" width="190" height="100" rx="8" fill="#eff6ff" stroke="#3b82f6" stroke-width="1.5"/>
  <text x="675" y="196" text-anchor="middle" font-size="12" font-weight="700" fill="#1e40af">Antennas</text>
  <g font-size="10" fill="#1e40af">
    <text x="675" y="218" text-anchor="middle">MAIN → cellular (u.FL)</text>
    <text x="675" y="238" text-anchor="middle">GPS → GNSS (u.FL, top face)</text>
    <text x="675" y="258" text-anchor="middle">WIFI port — leave open</text>
  </g>

  <!-- Qwiic bench note -->
  <text x="400" y="435" text-anchor="middle" font-size="10" fill="#64748b" font-style="italic">Bench Qwiic daisy-chain: Notecarrier CX Qwiic → PMSA003I → Mojo (second STEMMA QT port)</text>

  <!-- Power chain bottom – LiPo at Sunny Buddy BAT; LOAD feeds Mojo then NC system input -->
  <rect x="30" y="450" width="740" height="180" rx="8" fill="#fefce8" stroke="#ca8a04" stroke-width="1.5"/>
  <g transform="translate(40,458) scale(0.65)" fill="#713f12"><path d="M11 21h-1l1-7H7.5c-.88 0-.33-.75-.31-.78C8.48 10.94 10.42 7.54 13.01 3h1l-1 7h3.51c.4 0 .62.19.4.66C12.97 17.55 11 21 11 21z"/></g>
  <text x="68" y="474" font-size="12" font-weight="700" fill="#713f12">Power path</text>

  <!-- Main charge-path boxes (row 1) -->
  <rect x="50" y="480" width="110" height="44" rx="4" fill="#ffffff" stroke="#a16207"/>
  <text x="105" y="497" text-anchor="middle" font-size="11" fill="#713f12">Solar panel</text>
  <text x="105" y="512" text-anchor="middle" font-size="10" fill="#92400e">6 V / 6 W</text>

  <rect x="200" y="480" width="130" height="44" rx="4" fill="#ffffff" stroke="#a16207"/>
  <text x="265" y="497" text-anchor="middle" font-size="11" fill="#713f12">Sunny Buddy</text>
  <text x="265" y="512" text-anchor="middle" font-size="10" fill="#92400e">MPPT charger</text>

  <rect x="375" y="480" width="145" height="44" rx="4" fill="#ffffff" stroke="#a16207" stroke-dasharray="4,2"/>
  <text x="447" y="497" text-anchor="middle" font-size="11" fill="#713f12">Mojo (bench only)</text>
  <text x="447" y="512" text-anchor="middle" font-size="10" fill="#92400e">coulomb counter inline</text>

  <rect x="560" y="480" width="190" height="44" rx="4" fill="#ffffff" stroke="#a16207"/>
  <text x="655" y="497" text-anchor="middle" font-size="11" fill="#713f12">Notecarrier CX</text>
  <text x="655" y="512" text-anchor="middle" font-size="10" fill="#92400e">LiPo JST (system input)</text>

  <!-- Row 1 arrows -->
  <line x1="162" y1="502" x2="198" y2="502" stroke="#a16207" stroke-opacity="0.5" stroke-width="2" marker-end="url(#ar-brown)"/>
  <line x1="332" y1="502" x2="373" y2="502" stroke="#a16207" stroke-opacity="0.5" stroke-width="2" marker-end="url(#ar-brown)"/>
  <text x="352" y="497" text-anchor="middle" font-size="9" fill="#a16207">LOAD</text>
  <line x1="522" y1="502" x2="558" y2="502" stroke="#a16207" stroke-opacity="0.5" stroke-width="2" marker-end="url(#ar-brown)"/>

  <!-- LiPo battery branch: Sunny Buddy BAT port → 1200 mAh LiPo (row 2) -->
  <line x1="265" y1="524" x2="265" y2="552" stroke="#a16207" stroke-opacity="0.5" stroke-width="2" marker-end="url(#ar-brown)"/>
  <text x="282" y="543" font-size="9" fill="#a16207">BAT</text>

  <rect x="183" y="552" width="164" height="44" rx="4" fill="#ffffff" stroke="#a16207"/>
  <text x="265" y="570" text-anchor="middle" font-size="11" fill="#713f12">1200 mAh LiPo</text>
  <text x="265" y="585" text-anchor="middle" font-size="10" fill="#92400e">JST-PH → Sunny Buddy BAT</text>
</svg>
