<svg xmlns="http://www.w3.org/2000/svg" viewBox="0 0 800 480" width="800" font-family="-apple-system,BlinkMacSystemFont,'Segoe UI',Roboto,sans-serif">
  <defs>
    <marker id="ar-gray" viewBox="0 0 10 10" refX="9" refY="5" markerWidth="9" markerHeight="9" orient="auto-start-reverse">
      <path d="M0,0 L10,5 L0,10 z" fill="#475569"/>
    </marker>
    <marker id="ar-brown" viewBox="0 0 10 10" refX="9" refY="5" markerWidth="9" markerHeight="9" orient="auto-start-reverse">
      <path d="M0,0 L10,5 L0,10 z" fill="#a16207"/>
    </marker>
    <marker id="ar-red" viewBox="0 0 10 10" refX="9" refY="5" markerWidth="9" markerHeight="9" orient="auto-start-reverse">
      <path d="M0,0 L10,5 L0,10 z" fill="#dc2626"/>
    </marker>
  </defs>
  <rect width="800" height="480" fill="#ffffff"/>

  <text x="400" y="36" text-anchor="middle" font-size="17" font-weight="700" fill="#0f172a">Wiring &amp; Assembly</text>
  <text x="400" y="58" text-anchor="middle" font-size="12" fill="#64748b">DIN-rail layout · RS-485 to controller · battery-backed DC bus power</text>

  <!-- Battery-backed DC bus -->
  <rect x="30" y="100" width="160" height="110" rx="8" fill="#fff7ed" stroke="#ea580c" stroke-width="1.5"/>
  <g transform="translate(101,114) scale(0.65)" fill="#7c2d12"><path d="M11 21h-1l1-7H7.5c-.88 0-.33-.75-.31-.78C8.48 10.94 10.42 7.54 13.01 3h1l-1 7h3.51c.4 0 .62.19.4.66C12.97 17.55 11 21 11 21z"/></g>
  <text x="110" y="148" text-anchor="middle" font-size="12" font-weight="700" fill="#7c2d12">DC Control Bus</text>
  <text x="110" y="168" text-anchor="middle" font-size="11" fill="#9a3412">12 or 24 VDC</text>
  <text x="110" y="188" text-anchor="middle" font-size="10" fill="#c2410c" font-style="italic">battery-backed</text>

  <!-- OPTA -->
  <rect x="240" y="100" width="180" height="170" rx="8" fill="#fef9c3" stroke="#ca8a04" stroke-width="1.5"/>
  <g transform="translate(321,114) scale(0.65)" fill="#713f12"><path d="M15 9H9v6h6V9zm-2 4h-2v-2h2v2zm8-2V9h-2V7c0-1.1-.9-2-2-2h-2V3h-2v2h-2V3H9v2H7c-1.1 0-2 .9-2 2v2H3v2h2v2H3v2h2v2c0 1.1.9 2 2 2h2v2h2v-2h2v2h2v-2h2c1.1 0 2-.9 2-2v-2h2v-2h-2v-2h2zm-4 6H7V7h10v10z"/></g>
  <text x="330" y="148" text-anchor="middle" font-size="12" font-weight="700" fill="#713f12">Arduino OPTA</text>
  <text x="330" y="168" text-anchor="middle" font-size="11" fill="#854d0e">RS485 variant</text>
  <line x1="260" y1="182" x2="400" y2="182" stroke="#fde68a"/>
  <g font-size="11" fill="#854d0e">
    <text x="330" y="208" text-anchor="middle">+ / − terminals</text>
    <text x="330" y="230" text-anchor="middle">A · B · COM</text>
    <text x="330" y="252" text-anchor="middle">(RS-485)</text>
  </g>

  <!-- Wireless for OPTA -->
  <rect x="470" y="100" width="180" height="170" rx="8" fill="#dbeafe" stroke="#2563eb" stroke-width="1.5"/>
  <g transform="translate(551,114) scale(0.65)" fill="#1e3a8a"><path d="M1 9l2 2c4.97-4.97 13.03-4.97 18 0l2-2C16.93 2.93 7.08 2.93 1 9zm8 8l3 3 3-3c-1.65-1.66-4.34-1.66-6 0zm-4-4l2 2c2.76-2.76 7.24-2.76 10 0l2-2C15.14 9.14 8.87 9.14 5 13z"/></g>
  <text x="560" y="148" text-anchor="middle" font-size="12" font-weight="700" fill="#1e3a8a">Wireless for OPTA</text>
  <text x="560" y="168" text-anchor="middle" font-size="11" fill="#1e40af">expansion + Notecard</text>
  <line x1="490" y1="182" x2="630" y2="182" stroke="#bfdbfe"/>
  <g font-size="11" fill="#1e40af">
    <text x="560" y="208" text-anchor="middle">SMA primary antenna</text>
    <text x="560" y="230" text-anchor="middle">SMA diversity antenna</text>
    <text x="560" y="252" text-anchor="middle">12–24 VDC to +24V terminal</text>
  </g>

  <!-- Antennas -->
  <rect x="700" y="100" width="90" height="170" rx="8" fill="#f8fafc" stroke="#475569" stroke-width="1.5"/>
  <g transform="translate(731,114) scale(0.65)" fill="#0f172a"><path d="M1 9l2 2c4.97-4.97 13.03-4.97 18 0l2-2C16.93 2.93 7.08 2.93 1 9zm8 8l3 3 3-3c-1.65-1.66-4.34-1.66-6 0zm-4-4l2 2c2.76-2.76 7.24-2.76 10 0l2-2C15.14 9.14 8.87 9.14 5 13z"/></g>
  <text x="745" y="148" text-anchor="middle" font-size="11" font-weight="700" fill="#0f172a">Antennas</text>
  <line x1="710" y1="162" x2="780" y2="162" stroke="#cbd5e1"/>
  <text x="745" y="190" text-anchor="middle" font-size="10" fill="#334155">primary</text>
  <text x="745" y="213" text-anchor="middle" font-size="10" fill="#334155">diversity</text>
  <text x="745" y="240" text-anchor="middle" font-size="9" fill="#64748b" font-style="italic">via cable</text>
  <text x="745" y="256" text-anchor="middle" font-size="9" fill="#64748b" font-style="italic">glands</text>

  <!-- Generator Controller -->
  <rect x="240" y="330" width="340" height="110" rx="8" fill="#dcfce7" stroke="#16a34a" stroke-width="1.5"/>
  <g transform="translate(340,344) scale(0.65)" fill="#14532d"><path d="M20.57 14.86L22 13.43 20.57 12 17 15.57 8.43 7 12 3.43 10.57 2 9.14 3.43 7.71 2 5.57 4.14 6.43 5 4.14 7.29 3 6.43 1.43 8 2.86 9.57 1.43 11.14 2.86 12 4.29 10.43 13.86 19 5.29 17.43 6.86 19 8.43 17.43 10 19 11.57 17.43 13.14 22 17.71 20.43 16.14z"/></g>
  <text x="410" y="375" text-anchor="middle" font-size="13" font-weight="700" fill="#14532d">Generator Controller (Modbus server)</text>
  <text x="410" y="398" text-anchor="middle" font-size="11" fill="#166534">A · B · signal-common comms terminals</text>
  <text x="410" y="420" text-anchor="middle" font-size="10" fill="#166534" font-style="italic">120 Ω terminator at this end  ·  match Modbus serial settings in controller menu</text>

  <!-- 120Ω note at OPTA end -->
  <text x="155" y="262" text-anchor="middle" font-size="10" fill="#a16207">120 Ω at OPTA end</text>

  <!-- Power arrow: bus → OPTA -->
  <line x1="190" y1="152" x2="238" y2="152" stroke="#a16207" stroke-opacity="0.6" stroke-width="2" marker-end="url(#ar-brown)"/>
  <text x="214" y="143" text-anchor="middle" font-size="9" fill="#a16207">12/24 V</text>

  <!-- I²C arrow: OPTA → Wireless -->
  <line x1="420" y1="185" x2="468" y2="185" stroke="#475569" stroke-opacity="0.5" stroke-width="2" marker-end="url(#ar-gray)"/>
  <text x="444" y="177" text-anchor="middle" font-size="9" fill="#475569">I²C</text>

  <!-- Antenna arrow -->
  <line x1="650" y1="185" x2="698" y2="185" stroke="#475569" stroke-opacity="0.5" stroke-width="2" marker-end="url(#ar-gray)"/>

  <!-- RS-485 arrow: OPTA → controller -->
  <line x1="330" y1="270" x2="330" y2="328" stroke="#dc2626" stroke-opacity="0.55" stroke-width="2" marker-end="url(#ar-red)"/>
  <text x="348" y="304" font-size="11" font-weight="600" fill="#7f1d1d">RS-485</text>

  <!-- Footer -->
  <text x="400" y="460" text-anchor="middle" font-size="11" fill="#64748b" font-style="italic">Read-only over Modbus — no writes to start/stop or safety circuits.</text>
</svg>
