<?xml version="1.0" encoding="utf-8"?>
<!-- Generator: Adobe Illustrator 26.5.0, SVG Export Plug-In . SVG Version: 6.00 Build 0)  -->
<svg version="1.1" id="Layer_1" xmlns="http://www.w3.org/2000/svg" xmlns:xlink="http://www.w3.org/1999/xlink" x="0px" y="0px"
	 viewBox="0 0 20 20" style="enable-background:new 0 0 20 20;" xml:space="preserve">
<style type="text/css">
	.st0{clip-path:url(#SVGID_00000062181343069302065610000000554448337575885999_);}
	.st1{fill:#FFFFFF;}
</style>
<g>
	<defs>
		<rect id="SVGID_1_" x="0.4" y="0.4" width="19.2" height="19.2"/>
	</defs>
	<clipPath id="SVGID_00000181077370532292122410000012556666523583272112_">
		<use xlink:href="#SVGID_1_"  style="overflow:visible;"/>
	</clipPath>
	<g id="Group_653" style="clip-path:url(#SVGID_00000181077370532292122410000012556666523583272112_);">
		<path id="Path_89" class="st1" d="M19.355,12.307l-1.723-0.953c0.174-0.898,0.174-1.82,0-2.718l1.723-0.951
			c0.195-0.104,0.288-0.331,0.223-0.542c-0.451-1.372-1.207-2.624-2.212-3.662c-0.157-0.16-0.402-0.196-0.598-0.089l-1.723,0.954
			c-0.728-0.599-1.559-1.06-2.453-1.359V1.085c-0.003-0.222-0.162-0.411-0.38-0.453c-1.456-0.31-2.96-0.31-4.416,0
			c-0.218,0.042-0.376,0.231-0.38,0.453V2.99C6.52,3.292,5.686,3.752,4.951,4.347l-1.718-0.95c-0.196-0.11-0.442-0.073-0.598,0.089
			C1.628,4.521,0.872,5.774,0.422,7.147c-0.068,0.211,0.027,0.44,0.223,0.542l1.723,0.953c-0.174,0.898-0.174,1.82,0,2.718
			L0.645,12.31c-0.195,0.104-0.288,0.331-0.223,0.542c0.451,1.372,1.207,2.624,2.212,3.662c0.157,0.16,0.402,0.196,0.598,0.089
			l1.723-0.949c0.728,0.599,1.559,1.06,2.453,1.359v1.904c0.003,0.222,0.162,0.411,0.38,0.453c1.456,0.31,2.96,0.31,4.416,0
			c0.218-0.042,0.377-0.231,0.38-0.453V17.01c0.892-0.304,1.722-0.764,2.453-1.359l1.723,0.953c0.196,0.11,0.442,0.073,0.598-0.089
			c1.006-1.036,1.763-2.289,2.212-3.662c0.063-0.213-0.031-0.44-0.226-0.546 M10,13.131c-1.731,0.001-3.136-1.401-3.137-3.133
			s1.401-3.136,3.133-3.137s3.136,1.401,3.137,3.133c0,0.002,0,0.004,0,0.006C13.128,11.728,11.728,13.127,10,13.131"/>
	</g>
</g>
</svg>
