<?xml version="1.0" encoding="utf-8"?>
<!-- Generator: Adobe Illustrator 26.4.1, SVG Export Plug-In . SVG Version: 6.00 Build 0)  -->
<svg version="1.1" id="Layer_1" xmlns="http://www.w3.org/2000/svg" xmlns:xlink="http://www.w3.org/1999/xlink" x="0px" y="0px"
	 viewBox="0 0 24 24" style="enable-background:new 0 0 24 24;" xml:space="preserve">
<style type="text/css">
	.st0{fill:#1B3A52;}
</style>
<g id="a">
</g>
<g>
	<g>
		<path class="st0" d="M12.37,9.525c-1.107-0.232-2.086,0.608-2.086,1.677c0,0.633,0.347,1.181,0.858,1.478v7.959
			c0,0.474,0.384,0.858,0.858,0.858c0.474,0,0.858-0.384,0.858-0.858v-7.96c0.623-0.363,1.003-1.098,0.805-1.908
			C13.512,10.154,12.992,9.656,12.37,9.525z"/>
	</g>
	<g>
		<path class="st0" d="M14.46,14.736c-0.218,0-0.436-0.083-0.602-0.25c-0.333-0.332-0.333-0.872,0-1.204
			c1.217-1.217,1.217-3.197,0-4.414c-0.332-0.333-0.332-0.872,0-1.204c0.333-0.333,0.872-0.333,1.205,0
			c1.88,1.881,1.88,4.941,0,6.823C14.896,14.653,14.678,14.736,14.46,14.736z"/>
	</g>
	<g>
		<path class="st0" d="M17.016,17.426c-0.218,0-0.436-0.083-0.602-0.25c-0.333-0.333-0.333-0.872,0-1.204
			c3.906-3.906,1.077-8.494-0.222-9.794c-0.332-0.333-0.332-0.872,0-1.204c0.333-0.333,0.872-0.333,1.205,0
			c0.904,0.904,2.113,2.73,2.544,4.9c0.377,1.895,0.28,4.701-2.322,7.302C17.452,17.342,17.234,17.426,17.016,17.426z"/>
	</g>
	<g>
		<path class="st0" d="M19.339,19.647c-0.218,0-0.436-0.083-0.602-0.25c-0.333-0.333-0.333-0.872,0-1.204
			c0.728-0.729,2.26-2.794,2.844-5.397c0.729-3.25-0.228-6.224-2.844-8.84c-0.333-0.333-0.333-0.872,0-1.204
			c0.333-0.333,0.872-0.333,1.204,0c6.793,6.793,2.159,14.486,0,16.646C19.775,19.564,19.557,19.647,19.339,19.647z"/>
	</g>
	<g>
		<path class="st0" d="M9.54,14.736c-0.218,0-0.436-0.083-0.602-0.25c-1.881-1.881-1.881-4.942,0-6.823
			c0.332-0.333,0.872-0.333,1.204,0c0.333,0.333,0.333,0.872,0,1.204c-1.217,1.217-1.217,3.197,0,4.414
			c0.333,0.333,0.333,0.872,0,1.204C9.976,14.653,9.758,14.736,9.54,14.736z"/>
	</g>
	<g>
		<path class="st0" d="M7.206,17.426c-0.218,0-0.436-0.083-0.602-0.25c-0.904-0.904-2.113-2.73-2.544-4.9
			c-0.377-1.895-0.28-4.701,2.322-7.302c0.333-0.333,0.872-0.333,1.204,0c0.333,0.333,0.333,0.872,0,1.204
			c-3.906,3.906-1.076,8.494,0.222,9.794c0.333,0.333,0.333,0.872,0,1.204C7.642,17.342,7.424,17.426,7.206,17.426z"/>
	</g>
	<g>
		<path class="st0" d="M4.661,19.647c-0.218,0-0.436-0.083-0.602-0.25c-6.793-6.793-2.159-14.486,0-16.646
			c0.332-0.333,0.872-0.333,1.204,0c0.333,0.333,0.333,0.872,0,1.204C4.535,4.685,3.003,6.75,2.419,9.353
			c-0.729,3.25,0.228,6.224,2.844,8.84c0.333,0.333,0.333,0.872,0,1.204C5.096,19.564,4.879,19.647,4.661,19.647z"/>
	</g>
</g>
</svg>
