<?xml version="1.0" encoding="utf-8"?>
<!-- Generator: Adobe Illustrator 26.0.1, SVG Export Plug-In . SVG Version: 6.00 Build 0)  -->
<svg version="1.1" xmlns="http://www.w3.org/2000/svg" xmlns:xlink="http://www.w3.org/1999/xlink" x="0px" y="0px"
	 viewBox="0 0 237.6000061 51.1199989" style="enable-background:new 0 0 237.6000061 51.1199989;" xml:space="preserve">
<style type="text/css">
	.st0{display:none;}
	.st1{display:inline;stroke:#474442;stroke-miterlimit:10;}
	.st2{fill:#FFFFFF;stroke:#12100B;stroke-linecap:round;stroke-linejoin:round;stroke-miterlimit:10;}
	.st3{fill:#426681;}
	.st4{fill:#6695B4;}
	.st5{fill:#3EB2E7;}
	.st6{fill:#00395B;}
	.st7{fill:#2B6A8D;}
	.st8{fill:none;stroke:#12100B;stroke-miterlimit:10;}
	.st9{fill:#6795B4;}
	.st10{fill:#FFFFFF;}
</style>
<g id="_x30_">
</g>
<g id="slq_x5F_1">
	<g>
		<path class="st10" d="M8.1017923,36.2303009c-2.2160816-0.8624802-3.9299722-2.0520401-5.1426783-3.568676
			c-1.2132089-1.5146236-1.8190587-3.2063732-1.8190587-5.0722294v-0.630003c0-0.2324772,0.0810149-0.4307384,0.2450572-0.59478
			c0.1625327-0.1630363,0.3607925-0.2445545,0.5947794-0.2445545h6.157124c0.2324772,0,0.4307365,0.0815182,0.594779,0.2445545
			c0.1625328,0.1640415,0.2445536,0.3623028,0.2445536,0.59478v0.1398888c0,1.1664104,0.6405706,2.1808567,1.9242277,3.0433369
			c1.28265,0.8644943,2.9039516,1.2952309,4.8628998,1.2952309c1.86485,0,3.3814859-0.3854485,4.5478983-1.1553421
			c1.1654053-0.7688847,1.7491131-1.7370358,1.7491131-2.9034481c0-1.0718098-0.4785404-1.8769264-1.4341125-2.4133358
			c-0.9565773-0.5364075-2.5079346-1.1080399-4.6530657-1.7148952l-2.6588955-0.8393345
			c-2.3786144-0.6994438-4.3848619-1.4451828-6.0172348-2.2392273c-1.6333785-0.7920341-3.0086174-1.8769264-4.1282315-3.2536755
			c-1.1191111-1.3747349-1.6791698-3.1359262-1.6791698-5.2825661c0-3.2637386,1.2826501-5.8652697,3.848454-7.8005667
			c2.5647969-1.9352973,5.9472904-2.9044554,10.1454659-2.9044554c2.8445759,0,5.340435,0.4548904,7.4865723,1.3646712
			c2.1446266,0.909781,3.8011532,2.1687808,4.9675636,3.7780066c1.1654053,1.6092253,1.749115,3.4408636,1.749115,5.4929028
			c0,0.2334833-0.0820217,0.4317436-0.2445545,0.59478c-0.1640415,0.1640415-0.3623009,0.2445536-0.5947781,0.2445536h-5.9472904
			c-0.2339878,0-0.4317436-0.080512-0.59478-0.2445536c-0.1640415-0.1630363-0.2450581-0.3612967-0.2450581-0.59478
			c0-1.2127056-0.5947781-2.2271519-1.784338-3.0433378c-1.1890545-0.8161864-2.8103561-1.2247825-4.8623962-1.2247825
			c-1.819562,0-3.3004713,0.3391547-4.4432325,1.0144458c-1.1432648,0.6762972-1.7143936,1.6213026-1.7143936,2.8340082
			c0,1.1191111,0.5479813,1.970521,1.6444492,2.5532236c1.0954599,0.5837088,2.9265957,1.224782,5.4924002,1.9242268
			l1.5392799,0.4196663c2.4722099,0.7467461,4.5478992,1.5045605,6.2275715,2.2744522
			c1.6791706,0.7698917,3.1012058,1.8427105,4.2676182,3.2184505c1.1654053,1.376749,1.7496166,3.161087,1.7496166,5.3530159
			c0,3.3120441-1.3068027,5.911562-3.9183979,7.8005657c-2.6131039,1.8900108-6.0871792,2.8340073-10.4252443,2.8340073
			C12.8947477,37.5245247,10.3168669,37.0937881,8.1017923,36.2303009z"/>
		<path class="st10" d="M66.490303,19.3329315c0,3.3130531-0.3965149,6.1571236-1.1895599,8.5362415
			c-1.0265198,3.0785618-2.6704636,5.4818325-4.9323387,7.2067928c-2.263382,1.7259674-5.1200333,2.5884476-8.5714645,2.5884476
			c-3.3125496,0-5.9709396-1.1895599-7.976181-3.568676c-0.0940971-0.0925865-0.187191-0.1157341-0.2797775-0.0694389
			c-0.0940971,0.0472984-0.1398888,0.1398888-0.1398888,0.2797775v15.1834793c0,0.2324753-0.0820236,0.4307365-0.24506,0.5947762
			c-0.1640396,0.1620293-0.3617973,0.2445564-0.5947762,0.2445564h-6.4369011c-0.2339897,0-0.4317436-0.0825272-0.59478-0.2445564
			c-0.1640434-0.1640396-0.24506-0.3623009-0.24506-0.5947762V2.1910083c0-0.2334836,0.0810165-0.4307369,0.24506-0.5947793
			c0.1630363-0.163036,0.3607903-0.2455604,0.59478-0.2455604h6.4369011c0.2329788,0,0.4307365,0.0825244,0.5947762,0.2455604
			c0.1630363,0.1640424,0.24506,0.3612957,0.24506,0.5947793v2.0983331c0,0.1398892,0.0457916,0.2344904,0.1398888,0.2807846
			c0.0925865,0.0462937,0.1856804,0,0.2797775-0.1408954c2.0520401-2.4244053,4.7335777-3.6381176,8.0461273-3.6381176
			c3.3115425,0,6.1103249,0.8634867,8.3963509,2.5894539c2.2850189,1.7259674,3.94104,4.1272254,4.9675674,7.2067933
			C66.0706406,12.9654713,66.490303,15.8820038,66.490303,19.3329315z M58.2343445,19.1930428
			c0-3.4046335-0.5600586-6.0876818-1.6791687-8.0461264c-1.3068047-2.2855225-3.2888985-3.4287872-5.9472923-3.4287872
			c-2.4264183,0-4.2454758,1.1191111-5.4576759,3.3583393c-1.0738258,1.819562-1.6092262,4.5247517-1.6092262,8.1165743
			c0,3.6854191,0.5827026,6.4842014,1.749115,8.3963528c1.2122002,2.0530453,2.9618187,3.0785618,5.2473412,3.0785618
			c2.4722099,0,4.3380661-0.9802284,5.5975685-2.938673C57.5343971,25.5836506,58.2343445,22.7385712,58.2343445,19.1930428z"/>
		<path class="st10" d="M93.6368027,2.3308973c2.2382202,1.0265226,3.9651947,2.4374881,5.1768951,4.2328968
			c1.213707,1.7964144,1.8195572,3.8373833,1.8195572,6.1218996v23.5798321c0,0.2334824-0.080513,0.4317436-0.2435455,0.59478
			c-0.1650467,0.1640396-0.3623047,0.2445526-0.595787,0.2445526h-6.4368973c-0.23349,0-0.4307404-0.080513-0.5937729-0.2445526
			c-0.1650543-0.1630363-0.2455597-0.3612976-0.2455597-0.59478v-2.2392273c0-0.1398926-0.0462952-0.2204018-0.1408997-0.2445564
			c-0.0925903-0.0231476-0.185173,0.0120773-0.2797775,0.1046638c-2.2845154,2.5190086-5.5965576,3.7780075-9.9346237,3.7780075
			c-3.4987335,0-6.3795395-0.8856277-8.6414108-2.6588936c-2.2628784-1.7722626-3.3930588-4.4080105-3.3930588-7.9062386
			c0-3.6381168,1.2700653-6.472126,3.8132248-8.5010185c2.5416565-2.0288906,6.1219025-3.0433369,10.7397461-3.0433369h7.4865723
			c0.2334824,0,0.3502274-0.115736,0.3502274-0.3502254v-1.6786671c0-1.819562-0.5374222-3.2295208-1.6102371-4.2339029
			c-1.0728149-1.0023689-2.6820374-1.5035539-4.8271713-1.5035539c-1.7732697,0-3.2073822,0.3139949-4.3028412,0.9439979
			c-1.0964661,0.6300039-1.7843399,1.5045605-2.0641174,2.6236715c-0.1398849,0.559556-0.4669647,0.7940454-0.9797211,0.7004509
			l-6.7866287-0.8403397c-0.2339859-0.0452871-0.4317398-0.1278124-0.59478-0.2445536
			c-0.1640396-0.115736-0.2219086-0.2677011-0.1751099-0.4548903c0.3728714-2.8450785,1.9000702-5.1779017,4.5831223-6.9964571
			c2.6815414-1.819562,6.0519562-2.7293429,10.1102448-2.7293429C88.8101273,0.7911132,91.3985748,1.3053809,93.6368027,2.3308973z
			 M90.0681229,29.4079514c1.63237-1.2117004,2.4495697-2.7514839,2.4495697-4.6173401v-3.2888985
			c0-0.2324772-0.116745-0.3492184-0.3502274-0.3492184h-5.8773499c-2.4727097,0-4.4195786,0.4659595-5.8421173,1.3988876
			c-1.4235458,0.9339352-2.1340637,2.263382-2.1340637,3.9883442c0,1.4934883,0.5479813,2.6478233,1.6444473,3.4630032
			c1.0954666,0.817194,2.5064316,1.2247829,4.2329025,1.2247829C86.4763031,31.2275124,88.4352493,30.6216621,90.0681229,29.4079514
			z"/>
		<path class="st10" d="M127.221199,1.840783c0.3733749,0.1871895,0.5132675,0.5364085,0.4206772,1.0496699l-1.1895599,6.2970128
			c-0.0473022,0.5595551-0.374382,0.7235975-0.9802246,0.4901142c-0.6994476-0.2334833-1.5156326-0.3502254-2.4485626-0.3502254
			c-0.6068573,0-1.073822,0.0241537-1.3988876,0.0704479c-1.9594498,0.0935946-3.5928268,0.780962-4.8981247,2.0641155
			c-1.3062973,1.2831535-1.9594498,2.9507494-1.9594498,5.0027885v19.8008194c0,0.2334824-0.0815201,0.4317436-0.2445526,0.59478
			c-0.1640472,0.1640396-0.3623047,0.2445526-0.59478,0.2445526h-6.4369049c-0.2344894,0-0.4317398-0.080513-0.59478-0.2445526
			c-0.1640396-0.1630363-0.2455597-0.3612976-0.2455597-0.59478V2.1910083c0-0.2334836,0.0815201-0.4307369,0.2455597-0.5947793
			c0.1630402-0.163036,0.3602905-0.2455604,0.59478-0.2455604h6.4369049c0.2324753,0,0.4307327,0.0825244,0.59478,0.2455604
			c0.1630325,0.1640424,0.2445526,0.3612957,0.2445526,0.5947793v3.1480033c0,0.1871891,0.0352249,0.2918544,0.1046677,0.3150015
			c0.0704422,0.0241532,0.1509552-0.035224,0.2455597-0.1751127c1.9584427-3.0312614,4.6877823-4.5478983,8.1860123-4.5478983
			C124.7957916,0.9310021,126.1020889,1.2349333,127.221199,1.840783z"/>
		<path class="st10" d="M151.4290314,1.840783c0.3733673,0.1871895,0.5132599,0.5364085,0.4206696,1.0496699l-1.1895599,6.2970128
			c-0.0473022,0.5595551-0.3743744,0.7235975-0.9802246,0.4901142c-0.6994476-0.2334833-1.5156403-0.3502254-2.4485626-0.3502254
			c-0.6068573,0-1.073822,0.0241537-1.3988953,0.0704479c-1.9594421,0.0935946-3.5928192,0.780962-4.8981171,2.0641155
			c-1.3063049,1.2831535-1.9594574,2.9507494-1.9594574,5.0027885v19.8008194c0,0.2334824-0.0815125,0.4317436-0.2445526,0.59478
			c-0.1640472,0.1640396-0.3623047,0.2445526-0.5947723,0.2445526h-6.4369049c-0.2344971,0-0.4317474-0.080513-0.5947876-0.2445526
			c-0.164032-0.1630363-0.2455597-0.3612976-0.2455597-0.59478V2.1910083c0-0.2334836,0.0815277-0.4307369,0.2455597-0.5947793
			c0.1630402-0.163036,0.3602905-0.2455604,0.5947876-0.2455604h6.4369049c0.2324677,0,0.4307251,0.0825244,0.5947723,0.2455604
			c0.1630402,0.1640424,0.2445526,0.3612957,0.2445526,0.5947793v3.1480033c0,0.1871891,0.0352325,0.2918544,0.1046753,0.3150015
			c0.0704346,0.0241532,0.1509552-0.035224,0.2455597-0.1751127c1.9584351-3.0312614,4.6877747-4.5478983,8.1860046-4.5478983
			C149.0036163,0.9310021,150.309906,1.2349333,151.4290314,1.840783z"/>
		<path class="st10" d="M160.069931,34.8656311c-2.6357422-1.8648491-4.4905396-4.4532986-5.5623474-7.7663498
			c-0.7940369-2.5190067-1.1895599-5.1779022-1.1895599-7.9766865c0-2.9839611,0.3723755-5.6428556,1.1191101-7.9756784
			c1.0728149-3.2647452,2.9386749-5.8079047,5.59758-7.6264601c2.6588898-1.819562,5.8531799-2.7293429,9.585907-2.7293429
			c3.5435181,0,6.6120148,0.9097809,9.2004547,2.7293429c2.5884552,1.8185556,4.4190826,4.3375616,5.4929047,7.5560122
			c0.8393402,2.2392282,1.2590027,4.8981237,1.2590027,7.9766855c0,2.938673-0.3965149,5.5975685-1.1895599,7.9766865
			c-1.073822,3.3120441-2.9155273,5.911562-5.5271149,7.8005657c-2.6136169,1.8900108-5.7143097,2.8340073-9.3061371,2.8340073
			C165.8647461,37.6644135,162.7046661,36.7324905,160.069931,34.8656311z M173.9934082,29.1986198
			c1.234848-0.9802284,2.1335449-2.3549633,2.6941071-4.128231c0.4649658-1.5397835,0.6994476-3.4982281,0.6994476-5.877346
			c0-2.5190067-0.2344818-4.4784565-0.6994476-5.877346c-0.514267-1.7722607-1.3998871-3.1369324-2.6588898-4.0930071
			c-1.2600098-0.9560757-2.7987823-1.434113-4.6183472-1.434113c-1.7259674,0-3.2184448,0.4780374-4.4774475,1.434113
			c-1.2600098,0.9560747-2.1697845,2.3207464-2.7293396,4.0930071c-0.4669647,1.633379-0.6994476,3.5928307-0.6994476,5.877346
			c0,2.2855225,0.2324829,4.2449741,0.6994476,5.877346c0.5132599,1.7732677,1.4099579,3.1480026,2.6941223,4.128231
			c1.282135,0.9792233,2.8329926,1.4693375,4.6525574,1.4693375
			C171.2751312,30.6679573,172.756546,30.1778431,173.9934082,29.1986198z"/>
		<path class="st10" d="M196.9080048,36.4054146L186.9034424,2.2604496l-0.0704498-0.2797778
			c0-0.4659609,0.2556152-0.6994444,0.7698822-0.6994444h6.6472473c0.5122528,0,0.839325,0.2334836,0.9792175,0.6994444
			l5.8069,23.3694954c0.0462952,0.1398888,0.116745,0.2103367,0.2103424,0.2103367
			c0.0925751,0,0.1630249-0.0704479,0.2103271-0.2103367l6.0866852-23.3694954
			c0.1398773-0.4659609,0.4659576-0.6994444,0.9792175-0.6994444h5.8079071c0.5122528,0,0.839325,0.2334836,0.9792175,0.6994444
			l6.2275696,23.3694954c0.0452881,0.1398888,0.1157379,0.2103367,0.2093353,0.2103367s0.1630402-0.0704479,0.2103271-0.2103367
			l6.2275848-23.3694954c0.1398773-0.4659609,0.4649506-0.6994444,0.9792175-0.6994444l6.5767822,0.1398889
			c0.2797852,0,0.4780426,0.0815179,0.5947876,0.2445539c0.1157379,0.1640424,0.1509552,0.3854493,0.10466,0.6652271
			l-10.0750122,34.0745163c-0.1398926,0.4669685-0.4438171,0.6994438-0.90979,0.6994438h-6.7166748
			c-0.514267,0-0.8393402-0.2324753-0.9792175-0.6994438l-6.1581268-21.3406029
			c-0.0462952-0.1398897-0.116745-0.2103367-0.2093353-0.2103367c-0.0946045,0-0.1640472,0.070447-0.2103424,0.2103367
			l-5.6670074,21.3406029c-0.1398926,0.4669685-0.4669647,0.6994438-0.9792175,0.6994438h-6.6472473
			C197.3739624,37.1048584,197.0489044,36.8723831,196.9080048,36.4054146z"/>
	</g>
</g>
</svg>
