<svg xmlns="http://www.w3.org/2000/svg" viewBox="0 0 800 430" width="800" font-family="-apple-system,BlinkMacSystemFont,'Segoe UI',Roboto,sans-serif">
  <defs>
    <marker id="ar-gray" viewBox="0 0 10 10" refX="9" refY="5" markerWidth="9" markerHeight="9" orient="auto-start-reverse">
      <path d="M0,0 L10,5 L0,10 z" fill="#475569"/>
    </marker>
    <marker id="ar-red" viewBox="0 0 10 10" refX="9" refY="5" markerWidth="9" markerHeight="9" orient="auto-start-reverse">
      <path d="M0,0 L10,5 L0,10 z" fill="#dc2626"/>
    </marker>
    <marker id="ar-green" viewBox="0 0 10 10" refX="9" refY="5" markerWidth="9" markerHeight="9" orient="auto-start-reverse">
      <path d="M0,0 L10,5 L0,10 z" fill="#16a34a"/>
    </marker>
  </defs>
  <rect width="800" height="430" fill="#ffffff"/>

  <text x="400" y="34" text-anchor="middle" font-size="17" font-weight="700" fill="#0f172a">Data Flow</text>
  <text x="400" y="55" text-anchor="middle" font-size="12" fill="#64748b">Sense · state machine · emit</text>

  <!-- Box 1: Sense (x=20, w=170, center=105) -->
  <rect x="20" y="110" width="170" height="200" rx="10" fill="#e0f2fe" stroke="#0284c7" stroke-width="1.5"/>
  <g transform="translate(96,125) scale(0.75)" fill="#0c4a6e">
    <path d="M11.99 2C6.47 2 2 6.48 2 12s4.47 10 9.99 10C17.52 22 22 17.52 22 12S17.52 2 11.99 2zM12 20c-4.42 0-8-3.58-8-8s3.58-8 8-8 8 3.58 8 8-3.58 8-8 8zm.5-13H11v6l5.25 3.15.75-1.23-4.5-2.67V7z"/>
  </g>
  <text x="105" y="162" text-anchor="middle" font-size="13" font-weight="700" fill="#0c4a6e">Sense</text>
  <line x1="40" y1="176" x2="170" y2="176" stroke="#7dd3fc"/>
  <g font-size="11" fill="#0c4a6e">
    <text x="105" y="200" text-anchor="middle">Accelerometer</text>
    <text x="105" y="218" text-anchor="middle" font-size="10" fill="#075985">every 5 min (parked)</text>
    <text x="105" y="238" text-anchor="middle">GPS fix</text>
    <text x="105" y="256" text-anchor="middle" font-size="10" fill="#075985">every 15 min (moving only)</text>
    <text x="105" y="278" text-anchor="middle">Battery voltage</text>
    <text x="105" y="296" text-anchor="middle" font-size="10" fill="#075985">per wake cycle</text>
  </g>

  <!-- Box 2: State machine (x=230, w=170, center=315) -->
  <rect x="230" y="110" width="170" height="200" rx="10" fill="#fefce8" stroke="#ca8a04" stroke-width="1.5"/>
  <g transform="translate(306,125) scale(0.75)" fill="#713f12">
    <path d="M20 3H5c-1.1 0-2 .9-2 2v14c0 1.1.9 2 2 2h15c1.1 0 2-.9 2-2V5c0-1.1-.9-2-2-2zm-9.6 13.6L7 13.2l1.4-1.4 2 2 4.6-4.6 1.4 1.4-6 6z"/>
  </g>
  <text x="315" y="162" text-anchor="middle" font-size="13" font-weight="700" fill="#713f12">State machine</text>
  <line x1="250" y1="176" x2="380" y2="176" stroke="#fde68a"/>
  <g font-size="11" fill="#713f12">
    <text x="315" y="200" text-anchor="middle">parked / moving</text>
    <text x="315" y="222" text-anchor="middle">transition detect</text>
    <text x="315" y="244" text-anchor="middle">timer checks</text>
    <text x="315" y="266" text-anchor="middle">env var overrides</text>
  </g>
  <text x="315" y="296" text-anchor="middle" font-size="10" fill="#a16207" font-style="italic">NotePayloadSaveAndSleep</text>

  <!-- Box 3a: trailer_event.qo (top, x=440, w=175, center=527) -->
  <rect x="440" y="110" width="175" height="90" rx="10" fill="#fee2e2" stroke="#dc2626" stroke-width="1.5"/>
  <g transform="translate(516,121) scale(0.65)" fill="#7f1d1d">
    <path d="M12 22c1.1 0 2-.9 2-2h-4c0 1.1.89 2 2 2zm6-6v-5c0-3.07-1.63-5.64-4.5-6.32V4c0-.83-.67-1.5-1.5-1.5s-1.5.67-1.5 1.5v.68C7.64 5.36 6 7.92 6 11v5l-2 2v1h16v-1l-2-2z"/>
  </g>
  <text x="527" y="157" text-anchor="middle" font-size="12" font-weight="700" fill="#7f1d1d">trailer_event.qo</text>
  <text x="527" y="174" text-anchor="middle" font-size="10" fill="#991b1b">departure · arrival · sync:true</text>
  <text x="527" y="190" text-anchor="middle" font-size="10" fill="#991b1b">cellular immed. · NTN next window</text>

  <!-- Box 3b: location + heartbeat (bottom, x=440, w=175, center=527) -->
  <rect x="440" y="220" width="175" height="90" rx="10" fill="#dcfce7" stroke="#16a34a" stroke-width="1.5"/>
  <g transform="translate(516,231) scale(0.65)" fill="#14532d">
    <path d="M19 3H5c-1.1 0-2 .9-2 2v14c0 1.1.9 2 2 2h14c1.1 0 2-.9 2-2V5c0-1.1-.9-2-2-2zM7 17v-3h2v3H7zm4 0V7h2v10h-2zm4 0v-5h2v5h-2z"/>
  </g>
  <text x="527" y="257" text-anchor="middle" font-size="12" font-weight="700" fill="#14532d">location · heartbeat</text>
  <text x="527" y="274" text-anchor="middle" font-size="10" fill="#166534">trailer_location.qo (moving)</text>
  <text x="527" y="290" text-anchor="middle" font-size="10" fill="#166534">trailer_heartbeat.qo (parked) · batched</text>

  <!-- Box 4: Notehub (x=655, w=125, center=717) -->
  <rect x="655" y="110" width="125" height="200" rx="10" fill="#dbeafe" stroke="#2563eb" stroke-width="1.5"/>
  <g transform="translate(706,175) scale(0.75)" fill="#1e3a8a">
    <path d="M19.35 10.04C18.67 6.59 15.64 4 12 4 9.11 4 6.6 5.64 5.35 8.04 2.34 8.36 0 10.91 0 14c0 3.31 2.69 6 6 6h13c2.76 0 5-2.24 5-5 0-2.64-2.05-4.78-4.65-4.96z"/>
  </g>
  <text x="717" y="218" text-anchor="middle" font-size="13" font-weight="700" fill="#1e3a8a">Notehub</text>
  <text x="717" y="236" text-anchor="middle" font-size="11" fill="#1e40af">+ routes</text>

  <!-- Arrows: Sense → State machine -->
  <line x1="190" y1="210" x2="228" y2="210" stroke="#475569" stroke-opacity="0.5" stroke-width="2" marker-end="url(#ar-gray)"/>

  <!-- Arrows: State machine → event (fork upward) -->
  <line x1="400" y1="180" x2="438" y2="162" stroke="#dc2626" stroke-opacity="0.5" stroke-width="2" marker-end="url(#ar-red)"/>

  <!-- Arrows: State machine → batch (fork downward) -->
  <line x1="400" y1="240" x2="438" y2="258" stroke="#16a34a" stroke-opacity="0.5" stroke-width="2" marker-end="url(#ar-green)"/>

  <!-- Arrows: event → Notehub -->
  <line x1="615" y1="162" x2="653" y2="180" stroke="#dc2626" stroke-opacity="0.5" stroke-width="2" marker-end="url(#ar-red)"/>

  <!-- Arrows: batch → Notehub -->
  <line x1="615" y1="258" x2="653" y2="240" stroke="#16a34a" stroke-opacity="0.5" stroke-width="2" marker-end="url(#ar-green)"/>

  <text x="400" y="390" text-anchor="middle" font-size="11" fill="#64748b" font-style="italic">Two Notefiles, two routes — events to fleet / TMS webhooks, telemetry to analytics store.</text>
</svg>
