<?xml version="1.0" encoding="UTF-8"?><svg xmlns="http://www.w3.org/2000/svg" viewBox="0 0 32 22"><defs><style>.d{fill:#9ebacc;}.e{fill:#1b3a52;}</style></defs><g id="a"/><g id="b"><g id="c"><g><path class="e" d="M0,17.42c0-.51,.48-.92,1.07-.92H5.33c.59,0,1.07,.41,1.07,.92v3.67c0,.51-.48,.92-1.07,.92H1.07c-.59,0-1.07-.41-1.07-.92v-3.67Z"/><path class="e" d="M8.53,11.92c0-.51,.48-.92,1.07-.92h4.27c.59,0,1.07,.41,1.07,.92v9.17c0,.51-.48,.92-1.07,.92h-4.27c-.59,0-1.07-.41-1.07-.92V11.92Z"/><path class="d" d="M17.07,6.42c0-.51,.48-.92,1.07-.92h4.27c.59,0,1.07,.41,1.07,.92v14.67c0,.51-.48,.92-1.07,.92h-4.27c-.59,0-1.07-.41-1.07-.92V6.42Z"/><path class="d" d="M25.6,.92c0-.51,.48-.92,1.07-.92h4.27c.59,0,1.07,.41,1.07,.92V21.08c0,.51-.48,.92-1.07,.92h-4.27c-.59,0-1.07-.41-1.07-.92V.92Z"/></g></g></g></svg>