<?xml version="1.0" encoding="UTF-8"?><svg xmlns="http://www.w3.org/2000/svg" viewBox="0 0 32 22"><defs><style>.d{fill:#9ebacc;}</style></defs><g id="a"/><g id="b"><g id="c"><g><path class="d" d="M17.07,21.08c0,.51,.48,.92,1.07,.92h4.27c.59,0,1.07-.41,1.07-.92v-1.48l-6.4-5.99v7.47Z"/><path class="d" d="M5.33,16.49H1.07c-.59,0-1.07,.41-1.07,.92v3.67c0,.51,.48,.92,1.07,.92H5.33c.59,0,1.07-.41,1.07-.92v-3.67c0-.51-.48-.92-1.07-.92Z"/><path class="d" d="M30.93,0h-4.27c-.59,0-1.07,.41-1.07,.92V18.36l-2.13-2V6.41c0-.51-.48-.92-1.07-.92h-4.27c-.59,0-1.07,.41-1.07,.92v3.95l-2.83-2.65-1.01,.69,14.53,13.59h3.18c.59,0,1.07-.41,1.07-.92V.92c0-.51-.48-.92-1.07-.92Z"/><path class="d" d="M14.42,11.13c-.16-.08-.35-.13-.55-.13h-4.27c-.59,0-1.07,.41-1.07,.92v9.16c0,.51,.48,.92,1.07,.92h4.27c.59,0,1.07-.41,1.07-.92V11.91c0-.15-.04-.29-.11-.41-.09-.15-.23-.29-.4-.37Z"/></g></g></g></svg>