<svg xmlns="http://www.w3.org/2000/svg" viewBox="0 0 800 540" width="800" font-family="-apple-system,BlinkMacSystemFont,'Segoe UI',Roboto,sans-serif">
  <defs>    <marker id="ar-amber" viewBox="0 0 10 10" refX="9" refY="5" markerWidth="9" markerHeight="9" orient="auto-start-reverse">
      <path d="M0,0 L10,5 L0,10 z" fill="#f59e0b"/>
    </marker>    <marker id="ar-red2" viewBox="0 0 10 10" refX="9" refY="5" markerWidth="9" markerHeight="9" orient="auto-start-reverse">
      <path d="M0,0 L10,5 L0,10 z" fill="#ef4444"/>
    </marker>    <marker id="ar-yellow" viewBox="0 0 10 10" refX="9" refY="5" markerWidth="9" markerHeight="9" orient="auto-start-reverse">
      <path d="M0,0 L10,5 L0,10 z" fill="#eab308"/>
    </marker>    <marker id="ar-blue" viewBox="0 0 10 10" refX="9" refY="5" markerWidth="9" markerHeight="9" orient="auto-start-reverse">
      <path d="M0,0 L10,5 L0,10 z" fill="#3b82f6"/>
    </marker>    <marker id="ar-brown" viewBox="0 0 10 10" refX="9" refY="5" markerWidth="9" markerHeight="9" orient="auto-start-reverse">
      <path d="M0,0 L10,5 L0,10 z" fill="#a16207"/>
    </marker>    <marker id="ar-sky" viewBox="0 0 10 10" refX="9" refY="5" markerWidth="9" markerHeight="9" orient="auto-start-reverse">
      <path d="M0,0 L10,5 L0,10 z" fill="#0ea5e9"/>
    </marker>  </defs>
  <rect width="800" height="540" fill="#ffffff"/>

  <text x="400" y="36" text-anchor="middle" font-size="17" font-weight="700" fill="#0f172a">Wiring &amp; Assembly</text>
  <text x="400" y="58" text-anchor="middle" font-size="12" fill="#64748b">Shock + coupler + cargo °C · 15-min sample · solar power chain</text>

  <rect x="320" y="100" width="160" height="280" rx="10" fill="#f1f5f9" stroke="#0f172a" stroke-width="2"/>
  <g transform="translate(391,115) scale(0.75)" fill="#0f172a"><path d="M15 9H9v6h6V9zm-2 4h-2v-2h2v2zm8-2V9h-2V7c0-1.1-.9-2-2-2h-2V3h-2v2h-2V3H9v2H7c-1.1 0-2 .9-2 2v2H3v2h2v2H3v2h2v2c0 1.1.9 2 2 2h2v2h2v-2h2v2h2v-2h2c1.1 0 2-.9 2-2v-2h2v-2h-2v-2h2zm-4 6H7V7h10v10z"/></g>
  <text x="400" y="152" text-anchor="middle" font-size="13" font-weight="700" fill="#0f172a">Notecarrier CX</text>
  <text x="400" y="170" text-anchor="middle" font-size="10" fill="#475569">+ Cygnet · NOTE-NBGLWX</text>

  <g font-size="11" fill="#0f172a">
    <text x="335" y="204">I²C</text>
    <text x="335" y="284">D5</text>
    <text x="465" y="204" text-anchor="end">D6</text>
    <text x="465" y="284" text-anchor="end">u.FL</text>
    <text x="400" y="358" text-anchor="middle">+VBAT</text>
  </g>
  <g>
    <circle cx="320" cy="200" r="4" fill="#f59e0b"/>
    <circle cx="320" cy="280" r="4" fill="#ef4444"/>
    <circle cx="480" cy="200" r="4" fill="#eab308"/>
    <circle cx="480" cy="280" r="4" fill="#3b82f6"/>
    <circle cx="400" cy="380" r="4" fill="#0ea5e9"/>
  </g>
  <rect x="40" y="170" width="180" height="60" rx="8" fill="#fff7ed" stroke="#f59e0b" stroke-width="1.5"/>
  <g transform="translate(56,184) scale(0.55)" fill="#7c2d12"><path d="M0 15h2V9H0v6zm3 2h2V7H3v10zm19-8v6h2V9h-2zm-3 8h2V7h-2v10zM16.5 3h-9C6.67 3 6 3.67 6 4.5v15c0 .83.67 1.5 1.5 1.5h9c.83 0 1.5-.67 1.5-1.5v-15c0-.83-.67-1.5-1.5-1.5zM15 19H9V5h6v14z"/></g>
  <text x="135" y="198" text-anchor="middle" font-size="12" font-weight="700" fill="#7c2d12">ADXL345 accel</text>
  <text x="135" y="218" text-anchor="middle" font-size="10" fill="#9a3412">I²C · shock peaks</text>
  <rect x="40" y="250" width="180" height="60" rx="8" fill="#fef2f2" stroke="#ef4444" stroke-width="1.5"/>
  <g transform="translate(56,264) scale(0.55)" fill="#7f1d1d"><path d="M1 21h22L12 2 1 21zm12-3h-2v-2h2v2zm0-4h-2v-4h2v4z"/></g>
  <text x="135" y="278" text-anchor="middle" font-size="12" font-weight="700" fill="#7f1d1d">Coupler proximity</text>
  <text x="135" y="298" text-anchor="middle" font-size="10" fill="#991b1b">reed/Hall · INPUT_PULLUP</text>
  <rect x="580" y="170" width="180" height="60" rx="8" fill="#fefce8" stroke="#eab308" stroke-width="1.5"/>
  <g transform="translate(596,184) scale(0.55)" fill="#713f12"><path d="M15 13V5c0-1.66-1.34-3-3-3S9 3.34 9 5v8c-1.21.91-2 2.37-2 4 0 2.76 2.24 5 5 5s5-2.24 5-5c0-1.63-.79-3.09-2-4z"/></g>
  <text x="675" y="198" text-anchor="middle" font-size="12" font-weight="700" fill="#713f12">DS18B20 cargo °C</text>
  <text x="675" y="218" text-anchor="middle" font-size="10" fill="#854d0e">1-Wire · TANK_CAR opt.</text>
  <rect x="580" y="250" width="180" height="60" rx="8" fill="#eff6ff" stroke="#3b82f6" stroke-width="1.5"/>
  <g transform="translate(596,264) scale(0.55)" fill="#1e3a8a"><path d="M3 10h5v4H3z M9 6h6v12H9z M16 10h5v4h-5z M11 3h2v3h-2z M11 18h2v3h-2z"/></g>
  <text x="675" y="278" text-anchor="middle" font-size="12" font-weight="700" fill="#1e3a8a">MAIN + GPS antennas</text>
  <text x="675" y="298" text-anchor="middle" font-size="10" fill="#1e40af">Skylo · u.FL × 2</text>

  <line x1="220" y1="200" x2="316" y2="200" stroke="#f59e0b" stroke-opacity="0.5" stroke-width="2" marker-end="url(#ar-amber)"/>
  <line x1="220" y1="280" x2="316" y2="280" stroke="#ef4444" stroke-opacity="0.5" stroke-width="2" marker-end="url(#ar-red2)"/>
  <line x1="580" y1="200" x2="484" y2="200" stroke="#eab308" stroke-opacity="0.5" stroke-width="2" marker-end="url(#ar-yellow)"/>
  <line x1="580" y1="280" x2="484" y2="280" stroke="#3b82f6" stroke-opacity="0.5" stroke-width="2" marker-end="url(#ar-blue)"/>

  <rect x="40" y="430" width="720" height="80" rx="8" fill="#fefce8" stroke="#ca8a04" stroke-width="1.5"/>
  <g transform="translate(50,438) scale(0.65)" fill="#713f12"><path d="M11 21h-1l1-7H7.5c-.88 0-.33-.75-.31-.78C8.48 10.94 10.42 7.54 13.01 3h1l-1 7h3.51c.4 0 .62.19.4.66C12.97 17.55 11 21 11 21z"/></g>
  <text x="78" y="454" font-size="12" font-weight="700" fill="#713f12">Power path</text>
  <rect x="60" y="465" width="110" height="35" rx="4" fill="#ffffff" stroke="#a16207"/>
  <text x="115" y="487" text-anchor="middle" font-size="11" fill="#713f12">Solar 3–5 W</text>
  <rect x="200" y="465" width="130" height="35" rx="4" fill="#ffffff" stroke="#a16207"/>
  <text x="265" y="487" text-anchor="middle" font-size="11" fill="#713f12">Charge ctrl</text>
  <rect x="360" y="465" width="100" height="35" rx="4" fill="#ffffff" stroke="#a16207"/>
  <text x="410" y="487" text-anchor="middle" font-size="11" fill="#713f12">LiPo</text>
  <rect x="490" y="465" width="200" height="35" rx="4" fill="#ffffff" stroke="#a16207"/>
  <text x="590" y="487" text-anchor="middle" font-size="11" fill="#713f12">Notecarrier +VBAT</text>
  <line x1="170" y1="482" x2="198" y2="482" stroke="#a16207" stroke-opacity="0.5" stroke-width="2" marker-end="url(#ar-brown)"/>
  <line x1="330" y1="482" x2="358" y2="482" stroke="#a16207" stroke-opacity="0.5" stroke-width="2" marker-end="url(#ar-brown)"/>
  <line x1="460" y1="482" x2="488" y2="482" stroke="#a16207" stroke-opacity="0.5" stroke-width="2" marker-end="url(#ar-brown)"/>
</svg>
