<?xml version="1.0" encoding="utf-8"?>
<!-- Generator: Adobe Illustrator 26.5.0, SVG Export Plug-In . SVG Version: 6.00 Build 0)  -->
<svg version="1.1" id="Layer_1" xmlns="http://www.w3.org/2000/svg" xmlns:xlink="http://www.w3.org/1999/xlink" x="0px" y="0px"
	 viewBox="0 0 256 90" style="enable-background:new 0 0 256 90;" xml:space="preserve">
<style type="text/css">
	.st0{fill:#FFFFFF;fill-opacity:0;}
	.st1{fill:#FFFFFF;}
	.st2{display:none;}
	.st3{fill:#00B9FF;}
</style>
<g id="logo_blueinc_brand-white" transform="translate(-1380.5 -525.25)">
	<rect id="Rectangle_144" x="1380.5" y="525.2" class="st0" width="256" height="90"/>
	<g id="Group_211" transform="translate(-70 -187)">
		<g id="Group_315">
			<g id="Group_210" transform="translate(1537.843 730.82)">
				<path id="Path_89" class="st1" d="M20.7,26.1c0.5,1.7,0.7,3.4,0.7,5.1c0,1.8-0.2,3.6-0.8,5.2c-0.5,1.7-1.6,3.2-3,4.3
					c-1.5,1.1-3.2,1.6-5,1.6c-1.9,0-3.6-0.8-4.8-2.2C7.7,40,7.7,40,7.6,40c-0.1,0-0.1,0.1-0.1,0.2v1.3c0,0.1-0.1,0.3-0.2,0.4
					C7.3,42,7.1,42,7,42H3.1c-0.1,0-0.3,0-0.4-0.1c-0.1-0.1-0.1-0.2-0.1-0.4V13.1c0-0.1,0-0.2,0.1-0.3c0.1-0.1,0.2-0.2,0.4-0.2H7
					c0.1,0,0.3,0.1,0.3,0.2c0.1,0.1,0.2,0.2,0.2,0.3v9.1c0,0.1,0,0.1,0.1,0.2c0.1,0,0.1,0,0.2,0c1.2-1.4,2.9-2.2,4.8-2.1
					c1.8-0.1,3.6,0.5,5.1,1.6C19.1,22.9,20.2,24.4,20.7,26.1z M15.4,36.1c0.7-1.5,1.1-3.2,1-4.8c0.1-1.8-0.3-3.6-1.3-5.1
					c-0.7-1.2-2-1.8-3.4-1.8c-1.3,0-2.5,0.7-3.2,1.8c-0.8,1.5-1.2,3.3-1.1,5c-0.1,1.7,0.2,3.4,1,4.9c0.6,1.3,1.9,2.1,3.3,2
					c0.7,0,1.5-0.2,2.1-0.5C14.6,37.3,15.1,36.7,15.4,36.1z M25.3,42c-0.2,0-0.5-0.1-0.5-0.4c0,0,0-0.1,0-0.1V13.1
					c0-0.1,0-0.2,0.1-0.3c0.1-0.1,0.2-0.2,0.4-0.2h3.9c0.3,0,0.5,0.2,0.5,0.5v28.4c0,0.1-0.1,0.3-0.2,0.4C29.4,42,29.3,42,29.2,42
					L25.3,42z M46.3,21c0-0.1,0-0.2,0.1-0.3c0.1-0.1,0.2-0.2,0.4-0.2h3.8c0.3,0,0.5,0.2,0.5,0.5v20.5c0,0.1-0.1,0.3-0.2,0.4
					C50.8,42,50.7,42,50.6,42h-3.8c-0.2,0-0.5-0.1-0.5-0.4c0,0,0-0.1,0-0.1v-1.3c0-0.1,0-0.1-0.1-0.2c-0.1,0-0.1,0-0.2,0.1
					c-1.3,1.5-3.2,2.4-5.2,2.2c-2,0.1-3.9-0.6-5.4-1.8c-1.5-1.3-2.3-3.3-2.1-5.2V21c0-0.1,0-0.2,0.1-0.3c0.1-0.1,0.2-0.2,0.4-0.2
					h3.9c0.3,0,0.5,0.2,0.5,0.5v12.8c-0.1,1.1,0.3,2.3,1,3.2c0.7,0.8,1.8,1.2,2.9,1.2c1.1,0.1,2.2-0.4,3-1.2c0.8-0.9,1.2-2,1.1-3.2
					L46.3,21z M73.2,28.9c0.1,0.8,0.2,1.6,0.2,2.4l0,1.3c0,0.2-0.1,0.5-0.4,0.5c0,0-0.1,0-0.1,0H59.6c-0.1,0-0.2,0.1-0.2,0.2
					c0,0,0,0,0,0.1c0,0.6,0.2,1.3,0.4,1.9c0.7,2,2.3,3,4.9,3.1c1.8,0,3.5-0.8,4.5-2.4c0.1-0.2,0.2-0.2,0.4-0.3c0.1,0,0.2,0,0.3,0.1
					l2.6,2.1c0.2,0.1,0.3,0.4,0.2,0.6c0,0,0,0,0,0.1c-0.9,1.2-2.1,2.2-3.5,2.9c-1.5,0.7-3.1,1-4.8,1c-2,0.1-3.9-0.5-5.6-1.5
					c-1.5-1-2.7-2.4-3.3-4.1c-0.7-2-1.1-4.2-1-6.3c0-1.3,0.1-2.7,0.5-3.9c0.5-1.9,1.6-3.5,3.2-4.6c1.6-1.2,3.6-1.8,5.6-1.7
					C69.3,20.2,72.5,23.1,73.2,28.9L73.2,28.9z M63.8,24.4c-0.9,0-1.8,0.3-2.6,0.8c-0.7,0.5-1.2,1.3-1.4,2.1
					c-0.2,0.6-0.3,1.2-0.3,1.8c-0.1,0.1,0,0.2,0.2,0.2h8.5c0.1,0,0.2-0.1,0.2-0.2c0,0,0,0,0-0.1c0-0.5-0.1-1.1-0.3-1.6
					c-0.2-0.9-0.7-1.8-1.5-2.4C65.8,24.7,64.8,24.4,63.8,24.4z M84.2,42.2c-1.6,0-3.2-0.2-4.7-0.8c-1.2-0.4-2.2-1.2-3.1-2.1
					c-0.7-0.9-1.1-1.9-1.1-3.1v-0.4c0-0.1,0-0.2,0.1-0.3c0.1-0.1,0.2-0.2,0.4-0.2h3.7c0.3,0,0.5,0.2,0.5,0.5V36
					c0,0.8,0.5,1.5,1.1,1.8c0.9,0.5,1.9,0.8,2.9,0.8c1,0,1.9-0.2,2.7-0.7c0.6-0.4,1-1,1.1-1.8c0-0.6-0.3-1.2-0.9-1.4
					c-0.9-0.5-1.8-0.8-2.8-1l-1.6-0.5c-1.2-0.3-2.4-0.8-3.6-1.3c-1-0.5-1.8-1.1-2.5-1.9c-0.7-0.9-1.1-2-1-3.2
					c-0.1-1.8,0.8-3.6,2.3-4.7c1.8-1.2,3.9-1.9,6.1-1.8c1.5,0,3.1,0.3,4.5,0.8c1.2,0.5,2.2,1.2,3,2.3c0.7,0.9,1.1,2.1,1.1,3.3
					c0,0.1-0.1,0.3-0.2,0.4c-0.1,0.1-0.2,0.1-0.3,0.1h-3.6c-0.2,0-0.5-0.1-0.5-0.4c0,0,0-0.1,0-0.1c0-0.8-0.4-1.4-1.1-1.8
					c-0.9-0.5-1.9-0.8-2.9-0.8c-0.9,0-1.9,0.2-2.7,0.6c-0.6,0.3-1,1-1,1.7c0,0.7,0.4,1.3,1,1.6c1.1,0.5,2.2,0.9,3.3,1.1l0.9,0.3
					c1.3,0.4,2.5,0.8,3.7,1.4c1,0.4,1.9,1.1,2.6,1.9c0.7,0.9,1.1,2,1.1,3.2c0.1,1.9-0.8,3.6-2.4,4.7C88.6,41.8,86.4,42.4,84.2,42.2
					L84.2,42.2z"/>
				<g id="Group_321" transform="translate(98.657 12.43)" class="st2">
					<path id="Path_135" class="st1" d="M0.7,4C0.2,3.6,0,3,0,2.4c0-0.6,0.2-1.3,0.7-1.7C1.1,0.2,1.7,0,2.4,0C3,0,3.6,0.2,4,0.7
						c0.5,0.4,0.7,1.1,0.7,1.7c0,1.3-1,2.3-2.2,2.3c0,0-0.1,0-0.1,0C1.7,4.7,1.1,4.5,0.7,4 M0.8,29.4V8.9c0-0.2,0.1-0.4,0.3-0.4
						c0,0,0.1,0,0.1,0h2.1c0.2,0,0.4,0.1,0.4,0.3c0,0,0,0.1,0,0.1v20.4c0,0.2-0.1,0.4-0.3,0.4c0,0-0.1,0-0.1,0H1.2
						c-0.2,0-0.4-0.1-0.4-0.3C0.8,29.4,0.8,29.4,0.8,29.4"/>
					<path id="Path_136" class="st1" d="M25.2,10.2c1.4,1.4,2.1,3.3,2,5.3v13.9c0,0.2-0.1,0.4-0.3,0.4c0,0-0.1,0-0.1,0h-2.1
						c-0.2,0-0.4-0.1-0.4-0.3c0,0,0-0.1,0-0.1V16.1c0.1-1.4-0.5-2.8-1.4-3.8c-0.9-1-2.3-1.5-3.6-1.5c-2.7-0.2-5,1.9-5.2,4.6
						c0,0.2,0,0.4,0,0.5v13.4c0,0.2-0.1,0.4-0.3,0.4c0,0-0.1,0-0.1,0h-2.1c-0.2,0-0.4-0.1-0.4-0.3c0,0,0-0.1,0-0.1V9
						c0-0.2,0.1-0.4,0.3-0.4c0,0,0.1,0,0.1,0h2.1c0.2,0,0.4,0.1,0.4,0.3c0,0,0,0.1,0,0.1v1.8c0,0.1,0,0.1,0.1,0.1c0,0,0.1,0,0.1,0
						c1.3-1.8,3.5-2.8,5.7-2.6C21.8,8.2,23.8,8.9,25.2,10.2"/>
					<path id="Path_137" class="st1" d="M36.2,28.6c-1.4-1-2.5-2.5-3-4.3c-0.4-1.7-0.6-3.5-0.5-5.2c0-1.7,0.2-3.4,0.5-5.1
						c0.5-1.7,1.5-3.2,2.9-4.2c1.5-1.1,3.3-1.6,5.2-1.6c1.9,0,3.7,0.5,5.3,1.6c1.8,1.1,3,3,3.2,5.1V15c0,0.2-0.1,0.3-0.4,0.4
						l-2.1,0.3h-0.1c-0.2,0-0.3-0.1-0.4-0.4l-0.1-0.6c-0.3-1.1-0.9-2.1-1.8-2.7c-1-0.8-2.3-1.2-3.6-1.1c-1.3,0-2.5,0.3-3.5,1.1
						c-0.9,0.7-1.6,1.8-1.8,3c-0.3,1.4-0.4,2.8-0.4,4.2c0,1.4,0.1,2.9,0.4,4.3c0.2,1.2,0.9,2.2,1.8,3c1,0.8,2.2,1.2,3.5,1.1
						c1.3,0,2.5-0.3,3.5-1.1c0.9-0.6,1.6-1.6,1.9-2.8v-0.2l0-0.2c0-0.3,0.2-0.4,0.5-0.3l2.1,0.3c0.3,0.1,0.4,0.2,0.4,0.5l-0.2,0.8
						c-0.4,1.6-1.5,3-2.9,3.9c-1.6,1-3.4,1.6-5.3,1.5C39.6,30.2,37.7,29.7,36.2,28.6"/>
				</g>
			</g>
			<g id="logo_blues" transform="translate(1470.5 732.25)">
				<path id="logo_blues-2" class="st3" d="M27.3,50H9.5C4.3,50,0,45.7,0,40.5V9.5C0,4.3,4.3,0,9.5,0h1.2L24,13.3
					c-2.1,4.8,0.2,10.4,5,12.5c1.2,0.5,2.5,0.8,3.8,0.8c5.3,0,9.5-4.3,9.5-9.5c0-5.3-4.3-9.5-9.5-9.5c-1.3,0-2.5,0.3-3.7,0.7L20.8,0
					h19.6C45.7,0,50,4.3,50,9.5v30.9c0,5.3-4.3,9.5-9.5,9.5h-3L25,37.6c2.1-4.8-0.2-10.4-5-12.5c-1.2-0.5-2.5-0.8-3.8-0.8
					c-5.3,0-9.5,4.3-9.5,9.5s4.3,9.5,9.5,9.5c1.3,0,2.5-0.3,3.7-0.7L27.3,50L27.3,50z"/>
			</g>
		</g>
	</g>
</g>
</svg>
