<svg xmlns="http://www.w3.org/2000/svg" viewBox="0 0 800 380" width="800" font-family="-apple-system,BlinkMacSystemFont,'Segoe UI',Roboto,sans-serif">
  <defs>
    <marker id="ar-gray" viewBox="0 0 10 10" refX="9" refY="5" markerWidth="9" markerHeight="9" orient="auto-start-reverse">
      <path d="M0,0 L10,5 L0,10 z" fill="#475569"/>
    </marker>
  </defs>
  <rect width="800" height="380" fill="#ffffff"/>

  <text x="400" y="36" text-anchor="middle" font-size="17" font-weight="700" fill="#0f172a">Aerial Lift Battery Health Monitor</text>
  <text x="400" y="58" text-anchor="middle" font-size="12" fill="#64748b">Aerial Lift Battery Health Monitor</text>

  <rect x="20" y="120" width="170" height="180" rx="8" fill="#fff7ed" stroke="#ea580c" stroke-width="1.5"/>
  <g transform="translate(96,135) scale(0.75)" fill="#7c2d12"><path d="M7.76 16.24C6.67 15.16 6 13.66 6 12s.67-3.16 1.76-4.24l1.42 1.42C8.45 9.9 8 10.9 8 12c0 1.1.45 2.1 1.17 2.83l-1.41 1.41zm8.48 0l-1.41-1.41C15.55 14.1 16 13.1 16 12c0-1.1-.45-2.1-1.17-2.83l1.41-1.41C17.33 8.84 18 10.34 18 12s-.67 3.16-1.76 4.24zM12 10c-1.1 0-2 .9-2 2s.9 2 2 2 2-.9 2-2-.9-2-2-2zm-7 2c0-1.93.78-3.68 2.05-4.95l-1.42-1.42C4.01 7.26 3 9.51 3 12s1.01 4.74 2.64 6.36l1.42-1.42C5.78 15.68 5 13.93 5 12zm14.36 0c0 1.93-.78 3.68-2.05 4.95l1.41 1.41C21 16.74 22 14.49 22 12s-1.01-4.74-2.64-6.36l-1.41 1.41C19.22 8.32 20 10.07 20 12z"/></g>
  <text x="105" y="172" text-anchor="middle" font-size="13" font-weight="700" fill="#7c2d12">Sensors</text>
  <line x1="40" y1="186" x2="170" y2="186" stroke="#fed7aa"/>
  <g font-size="11" fill="#9a3412">
    <text x="105" y="216" text-anchor="middle">INA228 power monitor</text>
    <text x="105" y="238" text-anchor="middle">NTC pack °C</text>
    <text x="105" y="260" text-anchor="middle">ACS758 (optional)</text>
    <text x="105" y="282" text-anchor="middle">CAN BMS (optional)</text>
  </g>

  <rect x="240" y="120" width="200" height="180" rx="8" fill="#fefce8" stroke="#ca8a04" stroke-width="1.5"/>
  <g transform="translate(331,135) scale(0.75)" fill="#713f12"><path d="M15 9H9v6h6V9zm-2 4h-2v-2h2v2zm8-2V9h-2V7c0-1.1-.9-2-2-2h-2V3h-2v2h-2V3H9v2H7c-1.1 0-2 .9-2 2v2H3v2h2v2H3v2h2v2c0 1.1.9 2 2 2h2v2h2v-2h2v2h2v-2h2c1.1 0 2-.9 2-2v-2h2v-2h-2v-2h2zm-4 6H7V7h10v10z"/></g>
  <text x="340" y="172" text-anchor="middle" font-size="13" font-weight="700" fill="#713f12">Edge enclosure</text>
  <line x1="260" y1="186" x2="420" y2="186" stroke="#fde68a"/>
  <g font-size="11" fill="#854d0e">
    <text x="340" y="216" text-anchor="middle">Notecarrier CX</text>
    <text x="340" y="238" text-anchor="middle">Cygnet STM32</text>
    <text x="340" y="260" text-anchor="middle">NOTE-NBGLWX</text>
  </g>

  <rect x="490" y="120" width="170" height="180" rx="8" fill="#dbeafe" stroke="#2563eb" stroke-width="1.5"/>
  <g transform="translate(566,135) scale(0.75)" fill="#1e3a8a"><path d="M19.35 10.04C18.67 6.59 15.64 4 12 4 9.11 4 6.6 5.64 5.35 8.04 2.34 8.36 0 10.91 0 14c0 3.31 2.69 6 6 6h13c2.76 0 5-2.24 5-5 0-2.64-2.05-4.78-4.65-4.96z"/></g>
  <text x="575" y="172" text-anchor="middle" font-size="13" font-weight="700" fill="#1e3a8a">Notehub</text>
  <line x1="510" y1="186" x2="640" y2="186" stroke="#bfdbfe"/>
  <g font-size="11" fill="#1e40af">
    <text x="575" y="216" text-anchor="middle">Storage</text>
    <text x="575" y="238" text-anchor="middle">Routing</text>
    <text x="575" y="260" text-anchor="middle">Env vars</text>
  </g>

  <rect x="710" y="120" width="80" height="180" rx="8" fill="#f3e8ff" stroke="#9333ea" stroke-width="1.5"/>
  <g transform="translate(741,135) scale(0.75)" fill="#581c87"><path d="M12 22c1.1 0 2-.9 2-2h-4c0 1.1.89 2 2 2zm6-6v-5c0-3.07-1.63-5.64-4.5-6.32V4c0-.83-.67-1.5-1.5-1.5s-1.5.67-1.5 1.5v.68C7.64 5.36 6 7.92 6 11v5l-2 2v1h16v-1l-2-2z"/></g>
  <text x="750" y="172" text-anchor="middle" font-size="13" font-weight="700" fill="#581c87">Routes</text>
  <line x1="720" y1="186" x2="780" y2="186" stroke="#e9d5ff"/>
  <g font-size="11" fill="#6b21a8">
    <text x="750" y="216" text-anchor="middle">Rental ERP</text>
    <text x="750" y="238" text-anchor="middle">Analytics</text>
    <text x="750" y="260" text-anchor="middle">On-call</text>
  </g>

  <text x="215" y="100" text-anchor="middle" font-size="11" font-weight="600" fill="#475569">I²C + ADC</text>
  <text x="465" y="100" text-anchor="middle" font-size="11" font-weight="600" fill="#475569">cellular / satellite</text>
  <text x="685" y="100" text-anchor="middle" font-size="11" font-weight="600" fill="#475569">routes</text>

  <line x1="190" y1="210" x2="238" y2="210" stroke="#475569" stroke-opacity="0.5" stroke-width="2" marker-end="url(#ar-gray)"/>
  <line x1="440" y1="210" x2="488" y2="210" stroke="#475569" stroke-opacity="0.5" stroke-width="2" marker-end="url(#ar-gray)"/>
  <line x1="660" y1="210" x2="708" y2="210" stroke="#475569" stroke-opacity="0.5" stroke-width="2" marker-end="url(#ar-gray)"/>

  <text x="400" y="345" text-anchor="middle" font-size="11" fill="#64748b" font-style="italic">Cellular primary, Skylo NTN fallback — alerts page even on no-coverage job sites.</text>
</svg>
