<svg xmlns="http://www.w3.org/2000/svg" viewBox="0 0 860 460" width="860" font-family="-apple-system,BlinkMacSystemFont,'Segoe UI',Roboto,sans-serif">
  <defs>
    <marker id="ar-gray" viewBox="0 0 10 10" refX="9" refY="5" markerWidth="9" markerHeight="9" orient="auto-start-reverse">
      <path d="M0,0 L10,5 L0,10 z" fill="#475569"/>
    </marker>
    <marker id="ar-red" viewBox="0 0 10 10" refX="9" refY="5" markerWidth="9" markerHeight="9" orient="auto-start-reverse">
      <path d="M0,0 L10,5 L0,10 z" fill="#dc2626"/>
    </marker>
    <marker id="ar-green" viewBox="0 0 10 10" refX="9" refY="5" markerWidth="9" markerHeight="9" orient="auto-start-reverse">
      <path d="M0,0 L10,5 L0,10 z" fill="#16a34a"/>
    </marker>
    <marker id="ar-violet" viewBox="0 0 10 10" refX="9" refY="5" markerWidth="9" markerHeight="9" orient="auto-start-reverse">
      <path d="M0,0 L10,5 L0,10 z" fill="#7c3aed"/>
    </marker>
    <marker id="ar-blue" viewBox="0 0 10 10" refX="9" refY="5" markerWidth="9" markerHeight="9" orient="auto-start-reverse">
      <path d="M0,0 L10,5 L0,10 z" fill="#2563eb"/>
    </marker>
  </defs>
  <rect width="860" height="460" fill="#ffffff"/>

  <text x="430" y="34" text-anchor="middle" font-size="17" font-weight="700" fill="#0f172a">Data Flow</text>
  <text x="430" y="55" text-anchor="middle" font-size="12" fill="#64748b">Sample · evaluate · accumulate · emit</text>

  <!-- ── Sample block ────────────────────────────────────────────── -->
  <rect x="20" y="100" width="170" height="210" rx="10" fill="#e0f2fe" stroke="#0284c7" stroke-width="1.5"/>
  <!-- clock icon -->
  <g transform="translate(96,114) scale(0.75)" fill="#0c4a6e"><path d="M11.99 2C6.47 2 2 6.48 2 12s4.47 10 9.99 10C17.52 22 22 17.52 22 12S17.52 2 11.99 2zM12 20c-4.42 0-8-3.58-8-8s3.58-8 8-8 8 3.58 8 8-3.58 8-8 8zm.5-13H11v6l5.25 3.15.75-1.23-4.5-2.67V7z"/></g>
  <text x="105" y="152" text-anchor="middle" font-size="13" font-weight="700" fill="#0c4a6e">Sample</text>
  <text x="105" y="168" text-anchor="middle" font-size="11" fill="#075985">every 60 s</text>
  <line x1="36" y1="182" x2="174" y2="182" stroke="#7dd3fc"/>
  <g font-size="11" fill="#0c4a6e">
    <text x="105" y="206" text-anchor="middle">Forward-air °C</text>
    <text x="105" y="224" text-anchor="middle">Return-air °C</text>
    <text x="105" y="250" text-anchor="middle">Door open/closed</text>
    <text x="105" y="278" text-anchor="middle" font-style="italic" fill="#0284c7">GNSS: Notecard bg</text>
    <text x="105" y="296" text-anchor="middle" font-style="italic" fill="#0284c7">(queried on alert only)</text>
  </g>

  <!-- ── Rules block ─────────────────────────────────────────────── -->
  <rect x="238" y="100" width="170" height="210" rx="10" fill="#fff7ed" stroke="#ea580c" stroke-width="1.5"/>
  <!-- checklist icon -->
  <g transform="translate(314,114) scale(0.75)" fill="#7c2d12"><path d="M20 3H5c-1.1 0-2 .9-2 2v14c0 1.1.9 2 2 2h15c1.1 0 2-.9 2-2V5c0-1.1-.9-2-2-2zm-9.6 13.6L7 13.2l1.4-1.4 2 2 4.6-4.6 1.4 1.4-6 6z"/></g>
  <text x="323" y="152" text-anchor="middle" font-size="13" font-weight="700" fill="#7c2d12">Edge rules</text>
  <text x="323" y="168" text-anchor="middle" font-size="11" fill="#9a3412">two independent checks</text>
  <line x1="254" y1="182" x2="392" y2="182" stroke="#fed7aa"/>
  <g font-size="11" fill="#7c2d12">
    <text x="323" y="206" text-anchor="middle">Door state machine</text>
    <text x="323" y="222" text-anchor="middle">open / close / long-open</text>
    <text x="323" y="248" text-anchor="middle">Temp excursion</text>
    <text x="323" y="264" text-anchor="middle">warm (temp_max_c)</text>
    <text x="323" y="280" text-anchor="middle">cold (temp_min_c)</text>
    <text x="323" y="298" text-anchor="middle" font-style="italic" fill="#ea580c">+ cooldown dedup</text>
  </g>

  <!-- ── Alert Notefile block (top-right of emit) ───────────────── -->
  <rect x="458" y="100" width="190" height="100" rx="10" fill="#fee2e2" stroke="#dc2626" stroke-width="1.5"/>
  <!-- bell icon -->
  <g transform="translate(534,110) scale(0.65)" fill="#7f1d1d"><path d="M12 22c1.1 0 2-.9 2-2h-4c0 1.1.89 2 2 2zm6-6v-5c0-3.07-1.63-5.64-4.5-6.32V4c0-.83-.67-1.5-1.5-1.5s-1.5.67-1.5 1.5v.68C7.64 5.36 6 7.92 6 11v5l-2 2v1h16v-1l-2-2z"/></g>
  <text x="553" y="148" text-anchor="middle" font-size="12" font-weight="700" fill="#7f1d1d">Alert Notefile</text>
  <text x="553" y="166" text-anchor="middle" font-size="10" fill="#991b1b">trailer_alert.qo</text>
  <text x="553" y="182" text-anchor="middle" font-size="10" fill="#991b1b">(cellular or NTN satellite)</text>
  <text x="553" y="196" text-anchor="middle" font-size="10" fill="#b91c1c" font-style="italic">enqueue → hub.sync</text>

  <!-- ── Cellular-only Notefiles block (bottom-right of emit) ──────── -->
  <rect x="458" y="220" width="190" height="100" rx="10" fill="#dcfce7" stroke="#16a34a" stroke-width="1.5"/>
  <!-- chart icon -->
  <g transform="translate(534,230) scale(0.65)" fill="#14532d"><path d="M19 3H5c-1.1 0-2 .9-2 2v14c0 1.1.9 2 2 2h14c1.1 0 2-.9 2-2V5c0-1.1-.9-2-2-2zM7 17v-3h2v3H7zm4 0V7h2v10h-2zm4 0v-5h2v5h-2z"/></g>
  <text x="553" y="262" text-anchor="middle" font-size="12" font-weight="700" fill="#14532d">Cellular-only Notefiles</text>
  <text x="553" y="278" text-anchor="middle" font-size="10" fill="#166534">trailer_log_cell.qo (per sample)</text>
  <text x="553" y="294" text-anchor="middle" font-size="10" fill="#166534">trailer_summary_cell.qo (hourly)</text>
  <text x="553" y="310" text-anchor="middle" font-size="10" fill="#166534">discarded during NTN-only coverage</text>

  <!-- ── Notehub block ───────────────────────────────────────────── -->
  <rect x="700" y="100" width="140" height="210" rx="10" fill="#dbeafe" stroke="#2563eb" stroke-width="1.5"/>
  <!-- cloud icon -->
  <g transform="translate(761,160) scale(0.75)" fill="#1e3a8a"><path d="M19.35 10.04C18.67 6.59 15.64 4 12 4 9.11 4 6.6 5.64 5.35 8.04 2.34 8.36 0 10.91 0 14c0 3.31 2.69 6 6 6h13c2.76 0 5-2.24 5-5 0-2.64-2.05-4.78-4.65-4.96z"/></g>
  <text x="770" y="210" text-anchor="middle" font-size="13" font-weight="700" fill="#1e3a8a">Notehub</text>
  <text x="770" y="228" text-anchor="middle" font-size="11" fill="#1e40af">+ routes</text>
  <line x1="710" y1="244" x2="830" y2="244" stroke="#bfdbfe"/>
  <g font-size="10" fill="#1e40af">
    <text x="770" y="264" text-anchor="middle">TMS / dispatch</text>
    <text x="770" y="280" text-anchor="middle">(trailer_alert.qo)</text>
    <text x="770" y="308" text-anchor="middle">cold-chain archive</text>
    <text x="770" y="323" text-anchor="middle">(logs + summaries)</text>
  </g>

  <!-- ── Arrows ──────────────────────────────────────────────────── -->
  <!-- sample → rules -->
  <line x1="190" y1="205" x2="236" y2="205" stroke="#475569" stroke-opacity="0.5" stroke-width="2" marker-end="url(#ar-gray)"/>
  <!-- rules → alert (diagonal up) -->
  <line x1="408" y1="175" x2="456" y2="155" stroke="#dc2626" stroke-opacity="0.55" stroke-width="2" marker-end="url(#ar-red)"/>
  <!-- rules → summary (diagonal down) -->
  <line x1="408" y1="240" x2="456" y2="258" stroke="#16a34a" stroke-opacity="0.55" stroke-width="2" marker-end="url(#ar-green)"/>
  <!-- alert → notehub -->
  <line x1="648" y1="150" x2="698" y2="170" stroke="#dc2626" stroke-opacity="0.55" stroke-width="2" marker-end="url(#ar-red)"/>
  <!-- summary/log → notehub -->
  <line x1="648" y1="270" x2="698" y2="250" stroke="#16a34a" stroke-opacity="0.55" stroke-width="2" marker-end="url(#ar-green)"/>

  <text x="430" y="420" text-anchor="middle" font-size="11" fill="#64748b" font-style="italic">Alerts deliver over the first available transport (cellular or NTN). Per-sample logs and summaries are cellular/WiFi only.</text>
</svg>
