<?xml version="1.0" encoding="utf-8"?>
<!-- Generator: Adobe Illustrator 27.0.0, SVG Export Plug-In . SVG Version: 6.00 Build 0)  -->
<svg version="1.1" id="Layer_1" xmlns="http://www.w3.org/2000/svg" xmlns:xlink="http://www.w3.org/1999/xlink" x="0px" y="0px"
	 viewBox="0 0 24 24" style="enable-background:new 0 0 24 24;" xml:space="preserve">
<style type="text/css">
	.st0{fill:#C2C9CB;}
</style>
<path d="M19.491,4.201h-4.994c-1.099,0-1.998,0.899-1.998,1.998v5.543h-0.999V6.198c0-1.099-0.899-1.998-1.998-1.998H4.509
	c-1.099,0-1.998,0.899-1.998,1.998v11.985c0,1.099,0.899,1.998,1.998,1.998h4.994c1.099,0,1.998-0.899,1.998-1.998V12.64h0.999
	v5.543c0,1.099,0.899,1.998,1.998,1.998h4.994c1.099,0,1.998-0.899,1.998-1.998V6.198C21.488,5.1,20.589,4.201,19.491,4.201z
	 M9.503,11.741H4.509V6.198h4.994V11.741z M9.503,18.183H4.509V12.64h4.994V18.183z M19.491,11.741h-4.994V6.198h4.994V11.741z
	 M19.491,18.183h-4.994V12.64h4.994V18.183z"/>
<path d="M1.133,14.432L1.133,14.432c-0.34,0-0.619-0.278-0.619-0.619v-3.244c0-0.34,0.278-0.619,0.619-0.619h0
	c0.34,0,0.619,0.278,0.619,0.619l0,3.244C1.752,14.153,1.473,14.432,1.133,14.432z"/>
<path d="M22.867,14.432L22.867,14.432c-0.34,0-0.619-0.278-0.619-0.619v-3.244c0-0.34,0.278-0.619,0.619-0.619h0
	c0.34,0,0.619,0.278,0.619,0.619v3.244C23.486,14.153,23.207,14.432,22.867,14.432z"/>
<rect x="4.509" y="6.198" class="st0" width="4.994" height="5.543"/>
<rect x="14.497" y="6.198" class="st0" width="4.994" height="5.543"/>
</svg>
