<?xml version="1.0" encoding="utf-8"?>
<!-- Generator: Adobe Illustrator 27.0.0, SVG Export Plug-In . SVG Version: 6.00 Build 0)  -->
<svg version="1.1" id="Layer_1" xmlns="http://www.w3.org/2000/svg" xmlns:xlink="http://www.w3.org/1999/xlink" x="0px" y="0px"
	 viewBox="0 0 24 24" style="enable-background:new 0 0 24 24;" xml:space="preserve">
<style type="text/css">
	.st0{fill:#1B3A52;}
</style>
<path class="st0" d="M15.813,0.506c-0.706,0-1.28,0.574-1.28,1.28v6.399c0,0.706,0.574,1.28,1.28,1.28h6.399
	c0.706,0,1.28-0.574,1.28-1.28V1.786c0-0.706-0.574-1.28-1.28-1.28H15.813z M18.373,4.985h0.96c0.354,0,0.64-0.286,0.64-0.64
	c0-0.354-0.286-0.64-0.64-0.64h-0.96V4.985z M19.332,6.265h-0.96v0.64c0,0.354-0.286,0.64-0.64,0.64s-0.64-0.286-0.64-0.64v-1.28
	V3.226c0-0.442,0.358-0.8,0.8-0.8h1.44c1.06,0,1.92,0.86,1.92,1.92S20.392,6.265,19.332,6.265z"/>
<path class="st0" d="M4.318,3.999c1.092-1.048,2.574-1.692,4.208-1.692s3.116,0.644,4.208,1.692
	c0.203,0.193,0.522,0.187,0.716-0.014s0.187-0.522-0.014-0.716c-1.273-1.224-3.003-1.976-4.909-1.976S4.89,2.046,3.615,3.268
	C3.414,3.463,3.408,3.783,3.601,3.985c0.193,0.203,0.515,0.209,0.716,0.014H4.318z M8.526,4.84c0.899,0,1.719,0.334,2.346,0.887
	c0.211,0.185,0.53,0.165,0.716-0.044c0.185-0.209,0.165-0.53-0.044-0.716c-0.804-0.709-1.862-1.14-3.017-1.14
	S6.313,4.257,5.51,4.967C5.3,5.152,5.281,5.472,5.466,5.682c0.185,0.211,0.505,0.23,0.716,0.044C6.807,5.174,7.627,4.84,8.528,4.84
	H8.526z M9.539,7.373c0-0.559-0.454-1.013-1.013-1.013S7.513,6.814,7.513,7.373s0.454,1.013,1.013,1.013S9.539,7.932,9.539,7.373z"
	/>
<path class="st0" d="M4.742,12.139l-0.817,2.336h9.201l-0.817-2.336c-0.141-0.401-0.52-0.67-0.946-0.67H5.688
	C5.262,11.469,4.883,11.738,4.742,12.139z M1.749,14.625l1.102-3.147c0.423-1.206,1.56-2.014,2.837-2.014h5.674
	c1.278,0,2.414,0.808,2.837,2.014l1.102,3.147c0.727,0.301,1.24,1.018,1.24,1.854v4.509v1.503c0,0.554-0.448,1.002-1.002,1.002
	h-1.002c-0.554,0-1.002-0.448-1.002-1.002v-1.503H3.515v1.503c0,0.554-0.448,1.002-1.002,1.002H1.511
	c-0.554,0-1.002-0.448-1.002-1.002v-1.503v-4.509C0.508,15.643,1.022,14.926,1.749,14.625z M4.517,17.481
	c0-0.554-0.448-1.002-1.002-1.002s-1.002,0.448-1.002,1.002c0,0.554,0.448,1.002,1.002,1.002S4.517,18.035,4.517,17.481z
	 M13.536,18.483c0.554,0,1.002-0.448,1.002-1.002c0-0.554-0.448-1.002-1.002-1.002c-0.554,0-1.002,0.448-1.002,1.002
	C12.534,18.035,12.982,18.483,13.536,18.483z"/>
</svg>
