<?xml version="1.0" encoding="utf-8"?>
<!-- Generator: Adobe Illustrator 27.1.1, SVG Export Plug-In . SVG Version: 6.00 Build 0)  -->
<svg version="1.1" id="Layer_1" xmlns="http://www.w3.org/2000/svg" xmlns:xlink="http://www.w3.org/1999/xlink" x="0px" y="0px"
	 viewBox="0 0 44 44" style="enable-background:new 0 0 44 44;" xml:space="preserve">
<path d="M16.736,8.839v0.987L8.839,8.839c-1.456,0-2.632,1.176-2.632,2.632s1.176,2.632,2.632,2.632l7.896-0.987l2.55-0.321
	l0.082-0.008l0.082,0.008L22,13.117l7.896,0.987c1.456,0,2.632-1.176,2.632-2.632s-1.176-2.632-2.632-2.632L22,9.826V8.839
	c0-1.456-1.176-2.632-2.632-2.632C17.912,6.207,16.736,7.383,16.736,8.839z M3.575,22c-1.456,0-2.632,1.176-2.632,2.632v5.264
	c0,1.456,1.176,2.632,2.632,2.632h8.234c1.662,2.385,4.433,3.948,7.559,3.948s5.898-1.563,7.559-3.948h2.969
	c1.456,0,2.632,1.176,2.632,2.632c0,1.456,1.176,2.632,2.632,2.632h5.264c1.456,0,2.632-1.176,2.632-2.632
	C43.057,27.889,37.168,22,29.896,22h-2.632l-1.859-1.859c-0.494-0.494-1.16-0.773-1.859-0.773H22v-3.603l-2.632-0.329l-2.632,0.329
	v3.603h-1.538c-0.699,0-1.365,0.28-1.859,0.773L11.471,22H3.575z"/>
</svg>
