<?xml version="1.0" encoding="utf-8"?>
<!-- Generator: Adobe Illustrator 27.1.1, SVG Export Plug-In . SVG Version: 6.00 Build 0)  -->
<svg version="1.1" id="Layer_1" xmlns="http://www.w3.org/2000/svg" xmlns:xlink="http://www.w3.org/1999/xlink" x="0px" y="0px"
	 viewBox="0 0 44 44" style="enable-background:new 0 0 44 44;" xml:space="preserve">
<style type="text/css">
	.st0{fill:#C2C9CB;}
</style>
<g>
	<path class="st0" d="M35.913,27.499c-0.162,0.089-0.351,0.16-0.573,0.217c-2.061,0.532-3.776-0.125-5.423-1.323
		c-2.038-1.482-2.079-1.462-4.072,0.036c-1.525,1.146-3.201,1.795-5.077,1.279c-1-0.275-1.971-0.814-2.83-1.412
		c-1.806-1.256-2.072-1.307-3.786-0.005c-0.038,0.029-0.077,0.057-0.115,0.086c-0.465,0.426-0.999,0.778-1.573,1.035
		c-1.171,0.555-2.433,0.637-3.796,0.296c-0.368-0.092-1.315-0.682-1.532-0.84v9.998h29.729V27.01
		C36.563,27.202,36.244,27.366,35.913,27.499z"/>
	<path d="M7.945,7.135h-0.81v29.729h29.729V7.135L27.958,7.14L23.78,1.028h12.776v0.019c4.073,0.195,6.469,2.693,6.478,6.87
		c0.021,9.43-0.029,18.86,0.023,28.29c0.022,4.082-3.007,6.83-6.824,6.764c-9.43-0.163-18.867-0.147-28.298-0.007
		c-3.676,0.055-6.881-2.109-6.924-6.658c-0.089-9.47-0.094-18.943,0-28.413c0.044-4.4,2.582-6.771,6.921-6.856l0-0.009h12.286
		L16.041,7.14L7.945,7.135z"/>
	<path class="st0" d="M22.687,4.35c-0.177-0.222-0.44-0.346-0.724-0.346H21.91c-0.284,0-0.547,0.124-0.724,0.346
		c-1.075,1.359-4.922,6.414-4.922,9.109c0,3.132,2.541,5.673,5.673,5.673c3.132,0,5.673-2.541,5.673-5.673
		C27.61,10.764,23.763,5.709,22.687,4.35z"/>
</g>
</svg>
