<?xml version="1.0" encoding="utf-8"?>
<!-- Generator: Adobe Illustrator 26.5.0, SVG Export Plug-In . SVG Version: 6.00 Build 0)  -->
<svg version="1.1" id="Layer_1" xmlns="http://www.w3.org/2000/svg" xmlns:xlink="http://www.w3.org/1999/xlink" x="0px" y="0px"
	 viewBox="0 0 48 48" style="enable-background:new 0 0 48 48;" xml:space="preserve">
<path d="M36.743,21.451V1.063H11.257v10.194H1.063v35.68h20.389V36.743h5.097v10.194h20.389V21.451H36.743z M11.257,41.84H6.16
	v-5.097h5.097V41.84z M11.257,31.646H6.16v-5.097h5.097V31.646z M11.257,21.451H6.16v-5.097h5.097V21.451z M21.451,31.646h-5.097
	v-5.097h5.097V31.646z M21.451,21.451h-5.097v-5.097h5.097V21.451z M21.451,11.257h-5.097V6.16h5.097V11.257z M31.646,31.646h-5.097
	v-5.097h5.097V31.646z M31.646,21.451h-5.097v-5.097h5.097V21.451z M31.646,11.257h-5.097V6.16h5.097V11.257z M41.84,41.84h-5.097
	v-5.097h5.097V41.84z M41.84,31.646h-5.097v-5.097h5.097V31.646z"/>
</svg>
