<?xml version="1.0" encoding="utf-8"?>
<!-- Generator: Adobe Illustrator 26.5.0, SVG Export Plug-In . SVG Version: 6.00 Build 0)  -->
<svg version="1.1" id="Layer_1" xmlns="http://www.w3.org/2000/svg" xmlns:xlink="http://www.w3.org/1999/xlink" x="0px" y="0px"
	 viewBox="0 0 48 48" style="enable-background:new 0 0 48 48;" xml:space="preserve">
<style type="text/css">
	.st0{fill:#1B3A52;}
</style>
<g>
	<path class="st0" d="M45.421,36.381l-5.5-4.902c1.197-5.431-3.13-9.78-7.87-9.78c-2.669,0-8.054,2.071-8.054,8.054
		c0,2.232,0.897,4.234,2.37,5.684l-1.634,1.634c-1.887-1.864-3.038-4.464-3.038-7.318c0-3.912,2.209-7.295,5.408-9.044
		c-1.611-0.828-3.406-1.312-5.247-1.312c-5.477,0-10.056,3.797-11.299,8.906c-2.877-0.851-4.971-3.475-4.971-6.605
		c0-3.82,3.084-6.904,6.904-6.904c2.163,0,3.59,0,5.753,0c3.176,0,5.753-2.577,5.753-5.753s-2.577-5.753-5.753-5.753h-3.452
		c-1.266,0-2.301,1.036-2.301,2.301s1.036,2.301,2.301,2.301h3.452c0.644,0,1.151,0.506,1.151,1.151
		c0,0.644-0.506,1.151-1.151,1.151c-0.069,0-1.151,0-5.753,0c-6.351,0-11.506,5.155-11.506,11.506
		c0,5.569,3.958,10.217,9.205,11.276v0.069c0,6.443,5.224,11.667,11.667,11.667h20.389C46.548,44.711,48.711,39.326,45.421,36.381z
		 M37.803,40.109c-1.266,0-2.301-1.036-2.301-2.301s1.036-2.301,2.301-2.301s2.301,1.036,2.301,2.301S39.069,40.109,37.803,40.109z"
		/>
</g>
</svg>
