<svg xmlns="http://www.w3.org/2000/svg" viewBox="0 0 800 560" width="800" font-family="-apple-system,BlinkMacSystemFont,'Segoe UI',Roboto,sans-serif">
  <defs>
    <marker id="ar-amber" viewBox="0 0 10 10" refX="9" refY="5" markerWidth="9" markerHeight="9" orient="auto-start-reverse">
      <path d="M0,0 L10,5 L0,10 z" fill="#f59e0b"/>
    </marker>
    <marker id="ar-blue" viewBox="0 0 10 10" refX="9" refY="5" markerWidth="9" markerHeight="9" orient="auto-start-reverse">
      <path d="M0,0 L10,5 L0,10 z" fill="#3b82f6"/>
    </marker>
    <marker id="ar-red" viewBox="0 0 10 10" refX="9" refY="5" markerWidth="9" markerHeight="9" orient="auto-start-reverse">
      <path d="M0,0 L10,5 L0,10 z" fill="#ef4444"/>
    </marker>
    <marker id="ar-green" viewBox="0 0 10 10" refX="9" refY="5" markerWidth="9" markerHeight="9" orient="auto-start-reverse">
      <path d="M0,0 L10,5 L0,10 z" fill="#10b981"/>
    </marker>
    <marker id="ar-brown" viewBox="0 0 10 10" refX="9" refY="5" markerWidth="9" markerHeight="9" orient="auto-start-reverse">
      <path d="M0,0 L10,5 L0,10 z" fill="#a16207"/>
    </marker>
  </defs>
  <rect width="800" height="560" fill="#ffffff"/>

  <text x="400" y="36" text-anchor="middle" font-size="17" font-weight="700" fill="#0f172a">Wiring &amp; Assembly</text>
  <text x="400" y="58" text-anchor="middle" font-size="12" fill="#64748b">Sensor and power connections on the Notecarrier CX</text>

  <!-- Notecarrier CX center -->
  <rect x="310" y="100" width="180" height="310" rx="10" fill="#f1f5f9" stroke="#0f172a" stroke-width="2"/>
  <g transform="translate(381,115) scale(0.75)" fill="#0f172a">
    <path d="M15 9H9v6h6V9zm-2 4h-2v-2h2v2zm8-2V9h-2V7c0-1.1-.9-2-2-2h-2V3h-2v2h-2V3H9v2H7c-1.1 0-2 .9-2 2v2H3v2h2v2H3v2h2v2c0 1.1.9 2 2 2h2v2h2v-2h2v2h2v-2h2c1.1 0 2-.9 2-2v-2h2v-2h-2v-2h2zm-4 6H7V7h10v10z"/>
  </g>
  <text x="400" y="155" text-anchor="middle" font-size="13" font-weight="700" fill="#0f172a">Notecarrier CX</text>
  <text x="400" y="174" text-anchor="middle" font-size="10" fill="#475569">Cygnet · MBGLW · LiPo</text>

  <!-- Pin labels on Notecarrier CX -->
  <g font-size="11" fill="#0f172a">
    <text x="323" y="222">Qwiic</text>
    <text x="323" y="292">A0</text>
    <text x="465" y="222" text-anchor="end">JST</text>
    <text x="465" y="292" text-anchor="end">+3V3</text>
    <text x="400" y="394" text-anchor="middle">+VBAT · GND</text>
  </g>
  <!-- Pin dots -->
  <circle cx="310" cy="218" r="4" fill="#f59e0b"/>
  <circle cx="310" cy="288" r="4" fill="#3b82f6"/>
  <circle cx="490" cy="218" r="4" fill="#ef4444"/>
  <circle cx="490" cy="288" r="4" fill="#10b981"/>
  <circle cx="400" cy="410" r="4" fill="#0ea5e9"/>

  <!-- Left top: INA228 (Qwiic / high-side sensing) -->
  <rect x="40" y="186" width="185" height="80" rx="8" fill="#fff7ed" stroke="#f59e0b" stroke-width="1.5"/>
  <g transform="translate(56,200) scale(0.55)" fill="#7c2d12">
    <path d="M11 21h-1l1-7H7.5c-.88 0-.33-.75-.31-.78C8.48 10.94 10.42 7.54 13.01 3h1l-1 7h3.51c.4 0 .62.19.4.66C12.97 17.55 11 21 11 21z"/>
  </g>
  <text x="140" y="214" text-anchor="middle" font-size="12" font-weight="700" fill="#7c2d12">INA228 #5832</text>
  <text x="140" y="232" text-anchor="middle" font-size="10" fill="#9a3412">Qwiic I²C · high-side</text>
  <text x="140" y="252" text-anchor="middle" font-size="10" fill="#9a3412">V+ batt · V− load</text>

  <!-- Left bottom: Battery path -->
  <rect x="40" y="286" width="185" height="75" rx="8" fill="#fef2f2" stroke="#ef4444" stroke-width="1.5"/>
  <g transform="translate(56,300) scale(0.55)" fill="#7f1d1d">
    <path d="M15.67 4H14V2h-4v2H8.33C7.6 4 7 4.6 7 5.33v15.33C7 21.4 7.6 22 8.33 22h7.33c.74 0 1.34-.6 1.34-1.33V5.33C17 4.6 16.4 4 15.67 4zm-2.67 9h-2v2H9v-2H7v-2h2V9h2v2h2v2z"/>
  </g>
  <text x="140" y="316" text-anchor="middle" font-size="12" font-weight="700" fill="#7f1d1d">Battery bus</text>
  <text x="140" y="334" text-anchor="middle" font-size="10" fill="#991b1b">Batt+ → V+ → V− → Load+</text>
  <text x="140" y="350" text-anchor="middle" font-size="10" fill="#991b1b">Batt− → GND</text>

  <!-- Right top: LiPo (JST) -->
  <rect x="575" y="186" width="185" height="80" rx="8" fill="#ecfdf5" stroke="#10b981" stroke-width="1.5"/>
  <g transform="translate(591,200) scale(0.55)" fill="#064e3b">
    <path d="M11 21h-1l1-7H7.5c-.88 0-.33-.75-.31-.78C8.48 10.94 10.42 7.54 13.01 3h1l-1 7h3.51c.4 0 .62.19.4.66C12.97 17.55 11 21 11 21z"/>
  </g>
  <text x="668" y="214" text-anchor="middle" font-size="12" font-weight="700" fill="#064e3b">LiPo 2000 mAh</text>
  <text x="668" y="232" text-anchor="middle" font-size="10" fill="#065f46">3.7 V · JST PH connector</text>
  <text x="668" y="252" text-anchor="middle" font-size="10" fill="#065f46">Charged from +VBAT (5 V)</text>

  <!-- Right bottom: NTC thermistor divider -->
  <rect x="575" y="286" width="185" height="75" rx="8" fill="#eff6ff" stroke="#3b82f6" stroke-width="1.5"/>
  <g transform="translate(591,300) scale(0.55)" fill="#1e3a8a">
    <path d="M15 13V5c0-1.66-1.34-3-3-3S9 3.34 9 5v8c-1.21.91-2 2.37-2 4 0 2.76 2.24 5 5 5s5-2.24 5-5c0-1.63-.79-3.09-2-4z"/>
  </g>
  <text x="668" y="316" text-anchor="middle" font-size="12" font-weight="700" fill="#1e3a8a">NTC thermistor</text>
  <text x="668" y="334" text-anchor="middle" font-size="10" fill="#1e40af">+3V3 → 10kΩ → A0 → NTC → GND</text>
  <text x="668" y="350" text-anchor="middle" font-size="10" fill="#1e40af">β=3950 · battery case</text>

  <!-- Connection arrows -->
  <line x1="225" y1="226" x2="308" y2="218" stroke="#f59e0b" stroke-opacity="0.6" stroke-width="2" marker-end="url(#ar-amber)"/>
  <line x1="575" y1="218" x2="492" y2="218" stroke="#ef4444" stroke-opacity="0.6" stroke-width="2" marker-end="url(#ar-red)"/>
  <line x1="575" y1="288" x2="492" y2="288" stroke="#3b82f6" stroke-opacity="0.6" stroke-width="2" marker-end="url(#ar-blue)"/>
  <!-- INA228 V+/V- note connects to battery path via label only; no arrow needed -->

  <!-- Power chain bottom -->
  <rect x="30" y="445" width="740" height="88" rx="8" fill="#fefce8" stroke="#ca8a04" stroke-width="1.5"/>
  <g transform="translate(42,454) scale(0.65)" fill="#713f12">
    <path d="M11 21h-1l1-7H7.5c-.88 0-.33-.75-.31-.78C8.48 10.94 10.42 7.54 13.01 3h1l-1 7h3.51c.4 0 .62.19.4.66C12.97 17.55 11 21 11 21z"/>
  </g>
  <text x="70" y="468" font-size="12" font-weight="700" fill="#713f12">Power path</text>

  <rect x="50" y="478" width="130" height="42" rx="4" fill="#ffffff" stroke="#a16207"/>
  <text x="115" y="495" text-anchor="middle" font-size="11" fill="#713f12">Cabinet bus</text>
  <text x="115" y="511" text-anchor="middle" font-size="10" fill="#92400e">12 V or 24 V (+)</text>

  <rect x="220" y="478" width="120" height="42" rx="4" fill="#ffffff" stroke="#a16207"/>
  <text x="280" y="495" text-anchor="middle" font-size="11" fill="#713f12">1 A fuse</text>
  <text x="280" y="511" text-anchor="middle" font-size="10" fill="#92400e">inline on (+) feed</text>

  <rect x="385" y="478" width="130" height="42" rx="4" fill="#ffffff" stroke="#a16207"/>
  <text x="450" y="495" text-anchor="middle" font-size="11" fill="#713f12">DC-DC module</text>
  <text x="450" y="511" text-anchor="middle" font-size="10" fill="#92400e">→ 5 V regulated</text>

  <rect x="565" y="478" width="185" height="42" rx="4" fill="#ffffff" stroke="#a16207"/>
  <text x="657" y="495" text-anchor="middle" font-size="11" fill="#713f12">Notecarrier CX +VBAT</text>
  <text x="657" y="511" text-anchor="middle" font-size="10" fill="#92400e">4.5–5.5 V input</text>

  <line x1="180" y1="499" x2="218" y2="499" stroke="#a16207" stroke-opacity="0.5" stroke-width="2" marker-end="url(#ar-brown)"/>
  <line x1="340" y1="499" x2="383" y2="499" stroke="#a16207" stroke-opacity="0.5" stroke-width="2" marker-end="url(#ar-brown)"/>
  <line x1="515" y1="499" x2="563" y2="499" stroke="#a16207" stroke-opacity="0.5" stroke-width="2" marker-end="url(#ar-brown)"/>

  <!-- +VBAT down arrow from power chain to Notecarrier CX -->
  <line x1="400" y1="445" x2="400" y2="414" stroke="#a16207" stroke-opacity="0.4" stroke-width="1.5" stroke-dasharray="4,3" marker-end="url(#ar-brown)"/>
</svg>
