<svg xmlns="http://www.w3.org/2000/svg" viewBox="0 0 800 440" width="800" font-family="-apple-system,BlinkMacSystemFont,'Segoe UI',Roboto,sans-serif">
  <defs>
    <marker id="ar-gray" viewBox="0 0 10 10" refX="9" refY="5" markerWidth="9" markerHeight="9" orient="auto-start-reverse">
      <path d="M0,0 L10,5 L0,10 z" fill="#475569"/>
    </marker>
    <marker id="ar-red" viewBox="0 0 10 10" refX="9" refY="5" markerWidth="9" markerHeight="9" orient="auto-start-reverse">
      <path d="M0,0 L10,5 L0,10 z" fill="#dc2626"/>
    </marker>
    <marker id="ar-green" viewBox="0 0 10 10" refX="9" refY="5" markerWidth="9" markerHeight="9" orient="auto-start-reverse">
      <path d="M0,0 L10,5 L0,10 z" fill="#16a34a"/>
    </marker>
  </defs>
  <rect width="800" height="440" fill="#ffffff"/>

  <text x="400" y="36" text-anchor="middle" font-size="17" font-weight="700" fill="#0f172a">Data Flow</text>
  <text x="400" y="58" text-anchor="middle" font-size="12" fill="#64748b">Sample · evaluate · emit</text>

  <!-- Sample box (blue) -->
  <rect x="20" y="100" width="160" height="210" rx="10" fill="#e0f2fe" stroke="#0284c7" stroke-width="1.5"/>
  <g transform="translate(91,115) scale(0.75)" fill="#0c4a6e">
    <path d="M11.99 2C6.47 2 2 6.48 2 12s4.47 10 9.99 10C17.52 22 22 17.52 22 12S17.52 2 11.99 2zM12 20c-4.42 0-8-3.58-8-8s3.58-8 8-8 8 3.58 8 8-3.58 8-8 8zm.5-13H11v6l5.25 3.15.75-1.23-4.5-2.67V7z"/>
  </g>
  <text x="100" y="155" text-anchor="middle" font-size="13" font-weight="700" fill="#0c4a6e">Sample</text>
  <text x="100" y="174" text-anchor="middle" font-size="11" fill="#075985">every 120 s</text>
  <line x1="40" y1="188" x2="160" y2="188" stroke="#7dd3fc"/>
  <g font-size="11" fill="#0c4a6e">
    <text x="100" y="212" text-anchor="middle">volt_v (V)</text>
    <text x="100" y="234" text-anchor="middle">curr_ma (mA)</text>
    <text x="100" y="256" text-anchor="middle">temp_c (°C)</text>
    <text x="100" y="278" text-anchor="middle">charge_ah (Ah)</text>
  </g>

  <!-- Edge rules box (orange) -->
  <rect x="215" y="100" width="180" height="210" rx="10" fill="#fff7ed" stroke="#ea580c" stroke-width="1.5"/>
  <g transform="translate(296,115) scale(0.75)" fill="#7c2d12">
    <path d="M20 3H5c-1.1 0-2 .9-2 2v14c0 1.1.9 2 2 2h15c1.1 0 2-.9 2-2V5c0-1.1-.9-2-2-2zm-9.6 13.6L7 13.2l1.4-1.4 2 2 4.6-4.6 1.4 1.4-6 6z"/>
  </g>
  <text x="305" y="155" text-anchor="middle" font-size="13" font-weight="700" fill="#7c2d12">Edge rules</text>
  <text x="305" y="174" text-anchor="middle" font-size="10" fill="#9a3412">5 battery-condition + 1 sensor-health</text>
  <line x1="235" y1="188" x2="375" y2="188" stroke="#fed7aa"/>
  <g font-size="10" fill="#7c2d12">
    <text x="305" y="210" text-anchor="middle">float_voltage_low / _high</text>
    <text x="305" y="230" text-anchor="middle">float_current_high</text>
    <text x="305" y="250" text-anchor="middle">temp_high</text>
    <text x="305" y="270" text-anchor="middle">power_outage</text>
    <text x="305" y="292" text-anchor="middle" font-style="italic" fill="#b45309">ina228_unreachable</text>
  </g>

  <!-- Alert Notefile (red) -->
  <rect x="440" y="100" width="170" height="90" rx="10" fill="#fee2e2" stroke="#dc2626" stroke-width="1.5"/>
  <g transform="translate(516,112) scale(0.65)" fill="#7f1d1d">
    <path d="M12 22c1.1 0 2-.9 2-2h-4c0 1.1.89 2 2 2zm6-6v-5c0-3.07-1.63-5.64-4.5-6.32V4c0-.83-.67-1.5-1.5-1.5s-1.5.67-1.5 1.5v.68C7.64 5.36 6 7.92 6 11v5l-2 2v1h16v-1l-2-2z"/>
  </g>
  <text x="525" y="149" text-anchor="middle" font-size="12" font-weight="700" fill="#7f1d1d">battery_alert.qo</text>
  <text x="525" y="168" text-anchor="middle" font-size="10" fill="#991b1b">sync:true · immediate</text>
  <text x="525" y="183" text-anchor="middle" font-size="10" fill="#991b1b">30 min cooldown / alert</text>

  <!-- Summary Notefile (green) -->
  <rect x="440" y="220" width="170" height="90" rx="10" fill="#dcfce7" stroke="#16a34a" stroke-width="1.5"/>
  <g transform="translate(516,232) scale(0.65)" fill="#14532d">
    <path d="M19 3H5c-1.1 0-2 .9-2 2v14c0 1.1.9 2 2 2h14c1.1 0 2-.9 2-2V5c0-1.1-.9-2-2-2zM7 17v-3h2v3H7zm4 0V7h2v10h-2zm4 0v-5h2v5h-2z"/>
  </g>
  <text x="525" y="265" text-anchor="middle" font-size="12" font-weight="700" fill="#14532d">battery_summary.qo</text>
  <text x="525" y="284" text-anchor="middle" font-size="10" fill="#166534">hourly · template-backed</text>
  <text x="525" y="299" text-anchor="middle" font-size="10" fill="#166534">window avg · extremes</text>

  <!-- Notehub box (blue) -->
  <rect x="650" y="100" width="130" height="210" rx="10" fill="#dbeafe" stroke="#2563eb" stroke-width="1.5"/>
  <g transform="translate(706,178) scale(0.75)" fill="#1e3a8a">
    <path d="M19.35 10.04C18.67 6.59 15.64 4 12 4 9.11 4 6.6 5.64 5.35 8.04 2.34 8.36 0 10.91 0 14c0 3.31 2.69 6 6 6h13c2.76 0 5-2.24 5-5 0-2.64-2.05-4.78-4.65-4.96z"/>
  </g>
  <text x="715" y="218" text-anchor="middle" font-size="13" font-weight="700" fill="#1e3a8a">Notehub</text>
  <text x="715" y="238" text-anchor="middle" font-size="11" fill="#1e40af">+ routes</text>

  <!-- Arrows -->
  <line x1="180" y1="205" x2="213" y2="205" stroke="#475569" stroke-opacity="0.5" stroke-width="2" marker-end="url(#ar-gray)"/>
  <line x1="395" y1="160" x2="438" y2="148" stroke="#dc2626" stroke-opacity="0.5" stroke-width="2" marker-end="url(#ar-red)"/>
  <line x1="395" y1="250" x2="438" y2="262" stroke="#16a34a" stroke-opacity="0.5" stroke-width="2" marker-end="url(#ar-green)"/>
  <line x1="610" y1="148" x2="648" y2="172" stroke="#dc2626" stroke-opacity="0.5" stroke-width="2" marker-end="url(#ar-red)"/>
  <line x1="610" y1="262" x2="648" y2="238" stroke="#16a34a" stroke-opacity="0.5" stroke-width="2" marker-end="url(#ar-green)"/>

  <text x="400" y="388" text-anchor="middle" font-size="11" fill="#64748b" font-style="italic">Two Notefiles, two routes — alerts to on-call, summaries to analytics.</text>
</svg>
