<?xml version="1.0" encoding="utf-8"?>
<!-- Generator: Adobe Illustrator 26.5.0, SVG Export Plug-In . SVG Version: 6.00 Build 0)  -->
<svg version="1.1" id="Layer_1" xmlns="http://www.w3.org/2000/svg" xmlns:xlink="http://www.w3.org/1999/xlink" x="0px" y="0px"
	 viewBox="0 0 20 20" style="enable-background:new 0 0 20 20;" xml:space="preserve">
<style type="text/css">
	.st0{fill:#FFFFFF;}
</style>
<path class="st0" d="M19.183,0.4h-7.93c-0.23,0-0.417,0.188-0.417,0.417v7.93c0,0.23,0.188,0.417,0.417,0.417h7.93
	c0.23,0,0.417-0.188,0.417-0.417v-7.93C19.6,0.588,19.412,0.4,19.183,0.4z M19.183,10.835h-7.93c-0.23,0-0.417,0.188-0.417,0.417
	v7.93c0,0.23,0.188,0.417,0.417,0.417h7.93c0.23,0,0.417-0.188,0.417-0.417v-7.93C19.6,11.023,19.412,10.835,19.183,10.835z
	 M8.748,0.4h-7.93C0.588,0.4,0.4,0.588,0.4,0.817v7.93c0,0.23,0.188,0.417,0.417,0.417h7.93c0.23,0,0.417-0.188,0.417-0.417v-7.93
	C9.165,0.588,8.977,0.4,8.748,0.4z M8.748,10.835h-7.93c-0.23,0-0.417,0.188-0.417,0.417v7.93c0,0.23,0.188,0.417,0.417,0.417h7.93
	c0.23,0,0.417-0.188,0.417-0.417v-7.93C9.165,11.023,8.977,10.835,8.748,10.835z"/>
</svg>
