<?xml version="1.0" encoding="utf-8"?>
<!-- Generator: Adobe Illustrator 26.4.1, SVG Export Plug-In . SVG Version: 6.00 Build 0)  -->
<svg version="1.1" id="Layer_1" xmlns="http://www.w3.org/2000/svg" xmlns:xlink="http://www.w3.org/1999/xlink" x="0px" y="0px"
	 viewBox="0 0 24 24" style="enable-background:new 0 0 24 24;" xml:space="preserve">
<style type="text/css">
	.st0{fill:#9EBACC;}
</style>
<g id="a">
</g>
<g>
	<path class="st0" d="M14.648,10.257l1.717,1.821c0.326-1.544-0.106-3.217-1.302-4.414c-0.333-0.333-0.872-0.333-1.205,0
		c-0.333,0.332-0.333,0.872,0,1.204C14.256,9.266,14.51,9.749,14.648,10.257z"/>
	<path class="st0" d="M17.945,13.753l1.251,1.327c1.038-1.932,1.021-3.814,0.744-5.206c-0.431-2.17-1.64-3.996-2.544-4.9
		c-0.333-0.333-0.872-0.333-1.205,0c-0.333,0.332-0.333,0.872,0,1.204C17.25,7.237,19.322,10.477,17.945,13.753z"/>
	<path class="st0" d="M19.942,2.752c-0.333-0.333-0.872-0.333-1.204,0c-0.333,0.333-0.333,0.872,0,1.204
		c2.616,2.616,3.573,5.59,2.844,8.84c-0.289,1.29-0.812,2.447-1.354,3.376l1.213,1.286C23.507,14.161,25.361,8.172,19.942,2.752z"/>
	<path class="st0" d="M19.93,18.229l-0.64-0.674l-1.033-1.088l-1.181-1.243l-1.406-1.48l-1.231-1.296l-0.778-0.819l-1.995-2.101
		l-1.294-1.362L9.686,7.443l-1.871-1.97l-0.683-0.72L5.345,2.86c0,0-0.111-0.12-0.131-0.14C4.879,2.429,4.376,2.434,4.059,2.752
		c-2.159,2.16-6.793,9.852,0,16.646c0.166,0.166,0.384,0.25,0.602,0.25s0.436-0.083,0.602-0.25c0.333-0.333,0.333-0.872,0-1.204
		c-2.616-2.616-3.573-5.59-2.844-8.84C2.873,7.328,3.898,5.637,4.675,4.64l1.033,1.087C3.773,8.105,3.72,10.563,4.06,12.276
		c0.431,2.17,1.64,3.996,2.544,4.9c0.166,0.166,0.384,0.25,0.602,0.25s0.436-0.083,0.602-0.25c0.333-0.333,0.333-0.872,0-1.204
		C6.596,14.76,4.055,10.686,6.89,6.973l1.409,1.483c-1.208,1.868-0.997,4.395,0.639,6.03c0.166,0.166,0.384,0.25,0.602,0.25
		s0.436-0.083,0.602-0.25c0.333-0.333,0.333-0.872,0-1.204c-0.953-0.953-1.148-2.37-0.609-3.526l0.852,0.897
		c-0.059,0.174-0.101,0.356-0.101,0.549c0,0.634,0.347,1.181,0.858,1.478v7.959c0,0.474,0.384,0.858,0.858,0.858
		s0.858-0.384,0.858-0.858v-7.383l0.791,0.833l0.569,0.599l1.987,2.093l0.567,0.597l1.923,2.025
		c0.167,0.176,0.393,0.265,0.618,0.265c0.211,0,0.422-0.078,0.587-0.234c0.004-0.004,0.005-0.01,0.01-0.014
		c0.241-0.238,0.31-0.584,0.204-0.885C20.074,18.424,20.015,18.32,19.93,18.229z"/>
</g>
</svg>
